<?xml version="1.0" encoding="UTF-8" standalone="no"?>
<!DOCTYPE svg PUBLIC "-//W3C//DTD SVG 1.1//EN"
 "http://www.w3.org/Graphics/SVG/1.1/DTD/svg11.dtd">
<!-- Generated by graphviz version 2.43.0 (0)
 -->
<!-- Title: G Pages: 1 -->
<svg width="1966pt" height="520pt"
 viewBox="0.00 0.00 1966.49 519.75" xmlns="http://www.w3.org/2000/svg" xmlns:xlink="http://www.w3.org/1999/xlink">
<g id="graph0" class="graph" transform="scale(1 1) rotate(0) translate(4 515.75)">
<title>G</title>
<polygon fill="white" stroke="transparent" points="-4,4 -4,-515.75 1962.49,-515.75 1962.49,4 -4,4"/>
<text text-anchor="middle" x="979.25" y="-491.75" font-family="Arial" font-size="20.00">DFD szczegółowy &#45; 3.0 Obsługa rejonów</text>
<!-- kierownik -->
<g id="node1" class="node">
<title>kierownik</title>
<path fill="#fff2cc" stroke="#b57f00" stroke-width="1.3" d="M106,-51C106,-51 12,-51 12,-51 6,-51 0,-45 0,-39 0,-39 0,-27 0,-27 0,-21 6,-15 12,-15 12,-15 106,-15 106,-15 112,-15 118,-21 118,-27 118,-27 118,-39 118,-39 118,-45 112,-51 106,-51"/>
<text text-anchor="middle" x="59" y="-30.2" font-family="Arial" font-size="11.00">Kierownik sprzedaży</text>
</g>
<!-- p31 -->
<g id="node3" class="node">
<title>p31</title>
<ellipse fill="#dae8fc" stroke="#2f5597" stroke-width="1.4" cx="385.61" cy="-183" rx="80.72" ry="25.41"/>
<text text-anchor="middle" x="385.61" y="-186.2" font-family="Arial" font-size="11.00">3.1</text>
<text text-anchor="middle" x="385.61" y="-174.2" font-family="Arial" font-size="11.00">Definiowanie rejonu</text>
</g>
<!-- kierownik&#45;&gt;p31 -->
<g id="edge1" class="edge">
<title>kierownik&#45;&gt;p31</title>
<path fill="none" stroke="#3f3f3f" d="M99.16,-51.09C157.6,-78.1 267.73,-128.99 332.78,-159.05"/>
<polygon fill="#3f3f3f" stroke="#3f3f3f" points="331.94,-161.36 339.32,-162.07 334,-156.91 331.94,-161.36"/>
<text text-anchor="middle" x="211.5" y="-133.8" font-family="Arial" font-size="9.00">nazwa, zasięg, parametry rejonu</text>
</g>
<!-- pracownik -->
<g id="node2" class="node">
<title>pracownik</title>
<path fill="#fff2cc" stroke="#b57f00" stroke-width="1.3" d="M667.72,-159C667.72,-159 585.72,-159 585.72,-159 579.72,-159 573.72,-153 573.72,-147 573.72,-147 573.72,-135 573.72,-135 573.72,-129 579.72,-123 585.72,-123 585.72,-123 667.72,-123 667.72,-123 673.72,-123 679.72,-129 679.72,-135 679.72,-135 679.72,-147 679.72,-147 679.72,-153 673.72,-159 667.72,-159"/>
<text text-anchor="middle" x="626.72" y="-138.2" font-family="Arial" font-size="11.00">Pracownik obsługi</text>
</g>
<!-- p32 -->
<g id="node4" class="node">
<title>p32</title>
<ellipse fill="#dae8fc" stroke="#2f5597" stroke-width="1.4" cx="945.02" cy="-141" rx="82.05" ry="25.41"/>
<text text-anchor="middle" x="945.02" y="-144.2" font-family="Arial" font-size="11.00">3.2</text>
<text text-anchor="middle" x="945.02" y="-132.2" font-family="Arial" font-size="11.00">Przypisanie klientów</text>
</g>
<!-- pracownik&#45;&gt;p32 -->
<g id="edge3" class="edge">
<title>pracownik&#45;&gt;p32</title>
<path fill="none" stroke="#3f3f3f" d="M679.95,-141C727.66,-141 799.16,-141 855.73,-141"/>
<polygon fill="#3f3f3f" stroke="#3f3f3f" points="855.9,-143.45 862.9,-141 855.9,-138.55 855.9,-143.45"/>
<text text-anchor="middle" x="769.22" y="-143.8" font-family="Arial" font-size="9.00">adres klienta / korekta rejonu</text>
</g>
<!-- d3 -->
<g id="node8" class="node">
<title>d3</title>
<path fill="#e2f0d9" stroke="#548235" stroke-width="1.3" d="M653.72,-301.05C653.72,-303.51 641.62,-305.5 626.72,-305.5 611.82,-305.5 599.72,-303.51 599.72,-301.05 599.72,-301.05 599.72,-260.95 599.72,-260.95 599.72,-258.49 611.82,-256.5 626.72,-256.5 641.62,-256.5 653.72,-258.49 653.72,-260.95 653.72,-260.95 653.72,-301.05 653.72,-301.05"/>
<path fill="none" stroke="#548235" stroke-width="1.3" d="M653.72,-301.05C653.72,-298.59 641.62,-296.59 626.72,-296.59 611.82,-296.59 599.72,-298.59 599.72,-301.05"/>
<text text-anchor="middle" x="626.72" y="-284.2" font-family="Arial" font-size="11.00">D3</text>
<text text-anchor="middle" x="626.72" y="-272.2" font-family="Arial" font-size="11.00">Rejony</text>
</g>
<!-- p31&#45;&gt;d3 -->
<g id="edge2" class="edge">
<title>p31&#45;&gt;d3</title>
<path fill="none" stroke="#3f3f3f" d="M435.57,-203.07C482.69,-222.38 552.58,-251.02 593.2,-267.67"/>
<polygon fill="#3f3f3f" stroke="#3f3f3f" points="592.3,-269.95 599.71,-270.34 594.16,-265.42 592.3,-269.95"/>
<text text-anchor="middle" x="518.22" y="-248.8" font-family="Arial" font-size="9.00">dane rejonu</text>
</g>
<!-- d2 -->
<g id="node9" class="node">
<title>d2</title>
<path fill="#e2f0d9" stroke="#548235" stroke-width="1.3" d="M1260.33,-106.05C1260.33,-108.51 1248.22,-110.5 1233.33,-110.5 1218.43,-110.5 1206.33,-108.51 1206.33,-106.05 1206.33,-106.05 1206.33,-65.95 1206.33,-65.95 1206.33,-63.49 1218.43,-61.5 1233.33,-61.5 1248.22,-61.5 1260.33,-63.49 1260.33,-65.95 1260.33,-65.95 1260.33,-106.05 1260.33,-106.05"/>
<path fill="none" stroke="#548235" stroke-width="1.3" d="M1260.33,-106.05C1260.33,-103.59 1248.22,-101.59 1233.33,-101.59 1218.43,-101.59 1206.33,-103.59 1206.33,-106.05"/>
<text text-anchor="middle" x="1233.33" y="-89.2" font-family="Arial" font-size="11.00">D2</text>
<text text-anchor="middle" x="1233.33" y="-77.2" font-family="Arial" font-size="11.00">Klienci</text>
</g>
<!-- p32&#45;&gt;d2 -->
<g id="edge6" class="edge">
<title>p32&#45;&gt;d2</title>
<path fill="none" stroke="#3f3f3f" d="M1015.33,-127.69C1073.49,-116.51 1154.04,-101.04 1198.85,-92.43"/>
<polygon fill="#3f3f3f" stroke="#3f3f3f" points="1199.58,-94.79 1205.99,-91.06 1198.65,-89.97 1199.58,-94.79"/>
<text text-anchor="middle" x="1114.83" y="-121.8" font-family="Arial" font-size="9.00">przypisanie rejonu klienta</text>
</g>
<!-- p33 -->
<g id="node5" class="node">
<title>p33</title>
<ellipse fill="#dae8fc" stroke="#2f5597" stroke-width="1.4" cx="945.02" cy="-402" rx="89.61" ry="25.41"/>
<text text-anchor="middle" x="945.02" y="-405.2" font-family="Arial" font-size="11.00">3.3</text>
<text text-anchor="middle" x="945.02" y="-393.2" font-family="Arial" font-size="11.00">Przypisanie magazynu</text>
</g>
<!-- p33&#45;&gt;d3 -->
<g id="edge9" class="edge">
<title>p33&#45;&gt;d3</title>
<path fill="none" stroke="#3f3f3f" d="M856.7,-397.25C811.07,-391.95 755.46,-380.89 710.22,-358 687.6,-346.56 666.78,-327.01 651.71,-310.48"/>
<polygon fill="#3f3f3f" stroke="#3f3f3f" points="653.31,-308.6 646.82,-305 649.65,-311.86 653.31,-308.6"/>
<text text-anchor="middle" x="769.22" y="-395.8" font-family="Arial" font-size="9.00">magazyn obsługujący</text>
</g>
<!-- p34 -->
<g id="node6" class="node">
<title>p34</title>
<ellipse fill="#dae8fc" stroke="#2f5597" stroke-width="1.4" cx="1509.11" cy="-131" rx="98.08" ry="25.41"/>
<text text-anchor="middle" x="1509.11" y="-134.2" font-family="Arial" font-size="11.00">3.4</text>
<text text-anchor="middle" x="1509.11" y="-122.2" font-family="Arial" font-size="11.00">Analiza zapotrzebowania</text>
</g>
<!-- p35 -->
<g id="node7" class="node">
<title>p35</title>
<ellipse fill="#dae8fc" stroke="#2f5597" stroke-width="1.4" cx="1864.45" cy="-131" rx="94.09" ry="25.41"/>
<text text-anchor="middle" x="1864.45" y="-134.2" font-family="Arial" font-size="11.00">3.5</text>
<text text-anchor="middle" x="1864.45" y="-122.2" font-family="Arial" font-size="11.00">Raportowanie rejonowe</text>
</g>
<!-- p34&#45;&gt;p35 -->
<g id="edge12" class="edge">
<title>p34&#45;&gt;p35</title>
<path fill="none" stroke="#3f3f3f" d="M1607.6,-131C1655.98,-131 1714.35,-131 1763.11,-131"/>
<polygon fill="#3f3f3f" stroke="#3f3f3f" points="1763.24,-133.45 1770.24,-131 1763.24,-128.55 1763.24,-133.45"/>
<text text-anchor="middle" x="1688.9" y="-133.8" font-family="Arial" font-size="9.00">agregaty zapotrzebowania</text>
</g>
<!-- p35&#45;&gt;kierownik -->
<g id="edge14" class="edge">
<title>p35&#45;&gt;kierownik</title>
<path fill="none" stroke="#3f3f3f" d="M1826.94,-107.58C1764.6,-69.9 1632.45,0 1510.11,0 384.61,0 384.61,0 384.61,0 294.29,0 190.56,-12.8 125.16,-22.46"/>
<polygon fill="#3f3f3f" stroke="#3f3f3f" points="124.73,-20.04 118.17,-23.5 125.45,-24.89 124.73,-20.04"/>
<text text-anchor="middle" x="945.02" y="-2.8" font-family="Arial" font-size="9.00">raport rejonowy</text>
</g>
<!-- d3&#45;&gt;p32 -->
<g id="edge5" class="edge">
<title>d3&#45;&gt;p32</title>
<path fill="none" stroke="#3f3f3f" d="M653.9,-267.48C670.03,-259.28 691.18,-248.75 710.22,-240 770.08,-212.48 839.75,-183.35 887.36,-163.87"/>
<polygon fill="#3f3f3f" stroke="#3f3f3f" points="888.37,-166.1 893.93,-161.18 886.52,-161.56 888.37,-166.1"/>
<text text-anchor="middle" x="769.22" y="-242.8" font-family="Arial" font-size="9.00">aktywny rejon</text>
</g>
<!-- d3&#45;&gt;p33 -->
<g id="edge7" class="edge">
<title>d3&#45;&gt;p33</title>
<path fill="none" stroke="#3f3f3f" d="M653.73,-288.42C692.32,-299.69 766.81,-322.42 828.22,-347 850.22,-355.81 873.95,-366.8 894.17,-376.64"/>
<polygon fill="#3f3f3f" stroke="#3f3f3f" points="893.24,-378.91 900.61,-379.79 895.4,-374.51 893.24,-378.91"/>
<text text-anchor="middle" x="769.22" y="-349.8" font-family="Arial" font-size="9.00">rejon</text>
</g>
<!-- d3&#45;&gt;p35 -->
<g id="edge13" class="edge">
<title>d3&#45;&gt;p35</title>
<path fill="none" stroke="#3f3f3f" d="M653.96,-281C708.16,-281 836.39,-281 944.02,-281 944.02,-281 944.02,-281 1510.11,-281 1633.42,-281 1763.06,-202.64 1825.47,-159.19"/>
<polygon fill="#3f3f3f" stroke="#3f3f3f" points="1826.97,-161.13 1831.29,-155.1 1824.16,-157.12 1826.97,-161.13"/>
<text text-anchor="middle" x="1233.33" y="-283.8" font-family="Arial" font-size="9.00">definicje rejonów</text>
</g>
<!-- d2&#45;&gt;p32 -->
<g id="edge4" class="edge">
<title>d2&#45;&gt;p32</title>
<path fill="none" stroke="#3f3f3f" d="M1206.23,-82.48C1172.43,-78.72 1111.93,-74.71 1061.83,-86 1036.54,-91.7 1010.3,-103.59 989.2,-114.87"/>
<polygon fill="#3f3f3f" stroke="#3f3f3f" points="987.8,-112.84 982.82,-118.34 990.14,-117.15 987.8,-112.84"/>
<text text-anchor="middle" x="1114.83" y="-88.8" font-family="Arial" font-size="9.00">klienci</text>
</g>
<!-- d2&#45;&gt;p34 -->
<g id="edge11" class="edge">
<title>d2&#45;&gt;p34</title>
<path fill="none" stroke="#3f3f3f" d="M1260.58,-90.31C1296.71,-96.25 1363.55,-107.24 1418.68,-116.3"/>
<polygon fill="#3f3f3f" stroke="#3f3f3f" points="1418.38,-118.73 1425.69,-117.45 1419.18,-113.9 1418.38,-118.73"/>
<text text-anchor="middle" x="1341.33" y="-112.8" font-family="Arial" font-size="9.00">klienci z rejonu</text>
</g>
<!-- d1 -->
<g id="node10" class="node">
<title>d1</title>
<path fill="#e2f0d9" stroke="#548235" stroke-width="1.3" d="M1271.83,-196.05C1271.83,-198.51 1254.57,-200.5 1233.33,-200.5 1212.08,-200.5 1194.83,-198.51 1194.83,-196.05 1194.83,-196.05 1194.83,-155.95 1194.83,-155.95 1194.83,-153.49 1212.08,-151.5 1233.33,-151.5 1254.57,-151.5 1271.83,-153.49 1271.83,-155.95 1271.83,-155.95 1271.83,-196.05 1271.83,-196.05"/>
<path fill="none" stroke="#548235" stroke-width="1.3" d="M1271.83,-196.05C1271.83,-193.59 1254.57,-191.59 1233.33,-191.59 1212.08,-191.59 1194.83,-193.59 1194.83,-196.05"/>
<text text-anchor="middle" x="1233.33" y="-179.2" font-family="Arial" font-size="11.00">D1</text>
<text text-anchor="middle" x="1233.33" y="-167.2" font-family="Arial" font-size="11.00">Zamówienia</text>
</g>
<!-- d1&#45;&gt;p34 -->
<g id="edge10" class="edge">
<title>d1&#45;&gt;p34</title>
<path fill="none" stroke="#3f3f3f" d="M1272.11,-169.79C1309.8,-163.6 1369.08,-153.85 1418.81,-145.68"/>
<polygon fill="#3f3f3f" stroke="#3f3f3f" points="1419.25,-148.09 1425.76,-144.54 1418.45,-143.25 1419.25,-148.09"/>
<text text-anchor="middle" x="1341.33" y="-167.8" font-family="Arial" font-size="9.00">zamówienia z rejonu</text>
</g>
<!-- d5 -->
<g id="node11" class="node">
<title>d5</title>
<path fill="#e2f0d9" stroke="#548235" stroke-width="1.3" d="M683.22,-477.05C683.22,-479.51 657.9,-481.5 626.72,-481.5 595.54,-481.5 570.22,-479.51 570.22,-477.05 570.22,-477.05 570.22,-436.95 570.22,-436.95 570.22,-434.49 595.54,-432.5 626.72,-432.5 657.9,-432.5 683.22,-434.49 683.22,-436.95 683.22,-436.95 683.22,-477.05 683.22,-477.05"/>
<path fill="none" stroke="#548235" stroke-width="1.3" d="M683.22,-477.05C683.22,-474.59 657.9,-472.59 626.72,-472.59 595.54,-472.59 570.22,-474.59 570.22,-477.05"/>
<text text-anchor="middle" x="626.72" y="-460.2" font-family="Arial" font-size="11.00">D5</text>
<text text-anchor="middle" x="626.72" y="-448.2" font-family="Arial" font-size="11.00">Stany magazynowe</text>
</g>
<!-- d5&#45;&gt;p33 -->
<g id="edge8" class="edge">
<title>d5&#45;&gt;p33</title>
<path fill="none" stroke="#3f3f3f" d="M683.54,-447.29C732.69,-438.75 804.96,-426.18 860.91,-416.45"/>
<polygon fill="#3f3f3f" stroke="#3f3f3f" points="861.52,-418.83 867.99,-415.22 860.68,-414.01 861.52,-418.83"/>
<text text-anchor="middle" x="769.22" y="-444.8" font-family="Arial" font-size="9.00">magazyny i dostępność</text>
</g>
</g>
</svg>
