<?xml version="1.0" encoding="UTF-8" standalone="no"?>
<!DOCTYPE svg PUBLIC "-//W3C//DTD SVG 1.1//EN"
 "http://www.w3.org/Graphics/SVG/1.1/DTD/svg11.dtd">
<!-- Generated by graphviz version 2.43.0 (0)
 -->
<!-- Title: G Pages: 1 -->
<svg width="2374pt" height="520pt"
 viewBox="0.00 0.00 2373.78 520.00" xmlns="http://www.w3.org/2000/svg" xmlns:xlink="http://www.w3.org/1999/xlink">
<g id="graph0" class="graph" transform="scale(1 1) rotate(0) translate(4 516)">
<title>G</title>
<polygon fill="white" stroke="transparent" points="-4,4 -4,-516 2369.78,-516 2369.78,4 -4,4"/>
<text text-anchor="middle" x="1182.89" y="-492" font-family="Arial" font-size="20.00">DFD szczegółowy &#45; 5.0 Obsługa magazynu</text>
<!-- magazynier -->
<g id="node1" class="node">
<title>magazynier</title>
<path fill="#fff2cc" stroke="#b57f00" stroke-width="1.3" d="M62,-51C62,-51 12,-51 12,-51 6,-51 0,-45 0,-39 0,-39 0,-27 0,-27 0,-21 6,-15 12,-15 12,-15 62,-15 62,-15 68,-15 74,-21 74,-27 74,-27 74,-39 74,-39 74,-45 68,-51 62,-51"/>
<text text-anchor="middle" x="37" y="-30.2" font-family="Arial" font-size="11.00">Magazynier</text>
</g>
<!-- p51 -->
<g id="node4" class="node">
<title>p51</title>
<ellipse fill="#dae8fc" stroke="#2f5597" stroke-width="1.4" cx="302.07" cy="-144" rx="77.15" ry="25.41"/>
<text text-anchor="middle" x="302.07" y="-147.2" font-family="Arial" font-size="11.00">5.1</text>
<text text-anchor="middle" x="302.07" y="-135.2" font-family="Arial" font-size="11.00">Przyjęcie wyrobów</text>
</g>
<!-- magazynier&#45;&gt;p51 -->
<g id="edge2" class="edge">
<title>magazynier&#45;&gt;p51</title>
<path fill="none" stroke="#3f3f3f" d="M74.03,-48.2C118.83,-67.11 195.71,-99.54 247.45,-121.37"/>
<polygon fill="#3f3f3f" stroke="#3f3f3f" points="246.54,-123.65 253.94,-124.11 248.45,-119.13 246.54,-123.65"/>
<text text-anchor="middle" x="149.5" y="-101.8" font-family="Arial" font-size="9.00">potwierdzenie przyjęcia</text>
</g>
<!-- p54 -->
<g id="node7" class="node">
<title>p54</title>
<ellipse fill="#dae8fc" stroke="#2f5597" stroke-width="1.4" cx="2072.69" cy="-291" rx="89.19" ry="25.41"/>
<text text-anchor="middle" x="2072.69" y="-294.2" font-family="Arial" font-size="11.00">5.4</text>
<text text-anchor="middle" x="2072.69" y="-282.2" font-family="Arial" font-size="11.00">Kompletacja i wydanie</text>
</g>
<!-- magazynier&#45;&gt;p54 -->
<g id="edge12" class="edge">
<title>magazynier&#45;&gt;p54</title>
<path fill="none" stroke="#3f3f3f" d="M74.42,-25.51C125.03,-15.78 219.6,0 301.07,0 301.07,0 301.07,0 1753.58,0 1905.79,0 2016.92,-183.63 2056.18,-259.15"/>
<polygon fill="#3f3f3f" stroke="#3f3f3f" points="2054.16,-260.58 2059.53,-265.68 2058.51,-258.34 2054.16,-260.58"/>
<text text-anchor="middle" x="970.46" y="-2.8" font-family="Arial" font-size="9.00">potwierdzenie wydania</text>
</g>
<!-- dostawca -->
<g id="node2" class="node">
<title>dostawca</title>
<path fill="#fff2cc" stroke="#b57f00" stroke-width="1.3" d="M1465.06,-136C1465.06,-136 1422.06,-136 1422.06,-136 1416.06,-136 1410.06,-130 1410.06,-124 1410.06,-124 1410.06,-112 1410.06,-112 1410.06,-106 1416.06,-100 1422.06,-100 1422.06,-100 1465.06,-100 1465.06,-100 1471.06,-100 1477.06,-106 1477.06,-112 1477.06,-112 1477.06,-124 1477.06,-124 1477.06,-130 1471.06,-136 1465.06,-136"/>
<text text-anchor="middle" x="1443.56" y="-115.2" font-family="Arial" font-size="11.00">Dostawca</text>
</g>
<!-- dostawca&#45;&gt;p51 -->
<g id="edge1" class="edge">
<title>dostawca&#45;&gt;p51</title>
<path fill="none" stroke="#3f3f3f" d="M1409.66,-114.92C1354.37,-110.02 1239.31,-101 1141.76,-101 566.05,-101 566.05,-101 566.05,-101 498.76,-101 423.03,-114.88 370.18,-126.87"/>
<polygon fill="#3f3f3f" stroke="#3f3f3f" points="369.47,-124.52 363.2,-128.48 370.57,-129.3 369.47,-124.52"/>
<text text-anchor="middle" x="833.46" y="-103.8" font-family="Arial" font-size="9.00">dostawa wyrobów</text>
</g>
<!-- pracownik -->
<g id="node3" class="node">
<title>pracownik</title>
<path fill="#fff2cc" stroke="#b57f00" stroke-width="1.3" d="M1484.56,-212C1484.56,-212 1402.56,-212 1402.56,-212 1396.56,-212 1390.56,-206 1390.56,-200 1390.56,-200 1390.56,-188 1390.56,-188 1390.56,-182 1396.56,-176 1402.56,-176 1402.56,-176 1484.56,-176 1484.56,-176 1490.56,-176 1496.56,-182 1496.56,-188 1496.56,-188 1496.56,-200 1496.56,-200 1496.56,-206 1490.56,-212 1484.56,-212"/>
<text text-anchor="middle" x="1443.56" y="-191.2" font-family="Arial" font-size="11.00">Pracownik obsługi</text>
</g>
<!-- p53 -->
<g id="node6" class="node">
<title>p53</title>
<ellipse fill="#dae8fc" stroke="#2f5597" stroke-width="1.4" cx="1752.58" cy="-378" rx="111.03" ry="25.41"/>
<text text-anchor="middle" x="1752.58" y="-381.2" font-family="Arial" font-size="11.00">5.3</text>
<text text-anchor="middle" x="1752.58" y="-369.2" font-family="Arial" font-size="11.00">Rezerwacja pod zamówienie</text>
</g>
<!-- pracownik&#45;&gt;p53 -->
<g id="edge7" class="edge">
<title>pracownik&#45;&gt;p53</title>
<path fill="none" stroke="#3f3f3f" d="M1474.84,-212.15C1528.81,-244.49 1641.92,-312.28 1705.56,-350.42"/>
<polygon fill="#3f3f3f" stroke="#3f3f3f" points="1704.67,-352.75 1711.94,-354.24 1707.19,-348.54 1704.67,-352.75"/>
<text text-anchor="middle" x="1569.06" y="-293.8" font-family="Arial" font-size="9.00">dyspozycja rezerwacji</text>
</g>
<!-- p52 -->
<g id="node5" class="node">
<title>p52</title>
<ellipse fill="#dae8fc" stroke="#2f5597" stroke-width="1.4" cx="567.05" cy="-277" rx="79.81" ry="25.41"/>
<text text-anchor="middle" x="567.05" y="-280.2" font-family="Arial" font-size="11.00">5.2</text>
<text text-anchor="middle" x="567.05" y="-268.2" font-family="Arial" font-size="11.00">Aktualizacja stanów</text>
</g>
<!-- p51&#45;&gt;p52 -->
<g id="edge4" class="edge">
<title>p51&#45;&gt;p52</title>
<path fill="none" stroke="#3f3f3f" d="M345.04,-165.22C391.8,-188.87 467.35,-227.08 516.86,-252.12"/>
<polygon fill="#3f3f3f" stroke="#3f3f3f" points="516.02,-254.44 523.37,-255.41 518.23,-250.07 516.02,-254.44"/>
<text text-anchor="middle" x="433.15" y="-225.8" font-family="Arial" font-size="9.00">przyjęta ilość</text>
</g>
<!-- d4 -->
<g id="node9" class="node">
<title>d4</title>
<path fill="#e2f0d9" stroke="#548235" stroke-width="1.3" d="M594.55,-207.05C594.55,-209.51 582.23,-211.5 567.05,-211.5 551.88,-211.5 539.55,-209.51 539.55,-207.05 539.55,-207.05 539.55,-166.95 539.55,-166.95 539.55,-164.49 551.88,-162.5 567.05,-162.5 582.23,-162.5 594.55,-164.49 594.55,-166.95 594.55,-166.95 594.55,-207.05 594.55,-207.05"/>
<path fill="none" stroke="#548235" stroke-width="1.3" d="M594.55,-207.05C594.55,-204.59 582.23,-202.59 567.05,-202.59 551.88,-202.59 539.55,-204.59 539.55,-207.05"/>
<text text-anchor="middle" x="567.05" y="-190.2" font-family="Arial" font-size="11.00">D4</text>
<text text-anchor="middle" x="567.05" y="-178.2" font-family="Arial" font-size="11.00">Wyroby</text>
</g>
<!-- p51&#45;&gt;d4 -->
<g id="edge3" class="edge">
<title>p51&#45;&gt;d4</title>
<path fill="none" stroke="#3f3f3f" d="M371.48,-155.19C423.17,-163.64 491.89,-174.87 532.31,-181.48"/>
<polygon fill="#3f3f3f" stroke="#3f3f3f" points="531.97,-183.91 539.27,-182.62 532.76,-179.07 531.97,-183.91"/>
<text text-anchor="middle" x="433.15" y="-172.8" font-family="Arial" font-size="9.00">dane wyrobu</text>
</g>
<!-- d5 -->
<g id="node10" class="node">
<title>d5</title>
<path fill="#e2f0d9" stroke="#548235" stroke-width="1.3" d="M889.96,-313.05C889.96,-315.51 864.63,-317.5 833.46,-317.5 802.28,-317.5 776.96,-315.51 776.96,-313.05 776.96,-313.05 776.96,-272.95 776.96,-272.95 776.96,-270.49 802.28,-268.5 833.46,-268.5 864.63,-268.5 889.96,-270.49 889.96,-272.95 889.96,-272.95 889.96,-313.05 889.96,-313.05"/>
<path fill="none" stroke="#548235" stroke-width="1.3" d="M889.96,-313.05C889.96,-310.59 864.63,-308.59 833.46,-308.59 802.28,-308.59 776.96,-310.59 776.96,-313.05"/>
<text text-anchor="middle" x="833.46" y="-296.2" font-family="Arial" font-size="11.00">D5</text>
<text text-anchor="middle" x="833.46" y="-284.2" font-family="Arial" font-size="11.00">Stany magazynowe</text>
</g>
<!-- p52&#45;&gt;d5 -->
<g id="edge5" class="edge">
<title>p52&#45;&gt;d5</title>
<path fill="none" stroke="#3f3f3f" d="M645.6,-281.69C685.02,-284.08 732.32,-286.94 769.47,-289.19"/>
<polygon fill="#3f3f3f" stroke="#3f3f3f" points="769.62,-291.65 776.76,-289.63 769.92,-286.76 769.62,-291.65"/>
<text text-anchor="middle" x="711.96" y="-289.8" font-family="Arial" font-size="9.00">aktualny stan</text>
</g>
<!-- p53&#45;&gt;p54 -->
<g id="edge11" class="edge">
<title>p53&#45;&gt;p54</title>
<path fill="none" stroke="#3f3f3f" d="M1824.57,-358.58C1877.06,-344.23 1948.22,-324.77 2000.71,-310.41"/>
<polygon fill="#3f3f3f" stroke="#3f3f3f" points="2001.55,-312.72 2007.66,-308.51 2000.26,-307.99 2001.55,-312.72"/>
<text text-anchor="middle" x="1923.59" y="-341.8" font-family="Arial" font-size="9.00">lista kompletacji</text>
</g>
<!-- p53&#45;&gt;d5 -->
<g id="edge10" class="edge">
<title>p53&#45;&gt;d5</title>
<path fill="none" stroke="#3f3f3f" d="M1641.87,-380.56C1481.03,-382.12 1172.57,-376.76 916.96,-323 910.49,-321.64 903.86,-319.88 897.29,-317.9"/>
<polygon fill="#3f3f3f" stroke="#3f3f3f" points="897.61,-315.43 890.2,-315.67 896.14,-320.11 897.61,-315.43"/>
<text text-anchor="middle" x="1310.56" y="-377.8" font-family="Arial" font-size="9.00">rezerwacja</text>
</g>
<!-- p54&#45;&gt;d5 -->
<g id="edge13" class="edge">
<title>p54&#45;&gt;d5</title>
<path fill="none" stroke="#3f3f3f" d="M1983.58,-291.43C1919.73,-291.7 1831.31,-292 1753.58,-292 1139.76,-292 1139.76,-292 1139.76,-292 1055.97,-292 959.25,-292.38 897.52,-292.67"/>
<polygon fill="#3f3f3f" stroke="#3f3f3f" points="897.15,-290.22 890.17,-292.71 897.18,-295.12 897.15,-290.22"/>
<text text-anchor="middle" x="1443.56" y="-294.8" font-family="Arial" font-size="9.00">rozchód magazynowy</text>
</g>
<!-- d1 -->
<g id="node11" class="node">
<title>d1</title>
<path fill="#e2f0d9" stroke="#548235" stroke-width="1.3" d="M2365.78,-364.05C2365.78,-366.51 2348.53,-368.5 2327.28,-368.5 2306.04,-368.5 2288.78,-366.51 2288.78,-364.05 2288.78,-364.05 2288.78,-323.95 2288.78,-323.95 2288.78,-321.49 2306.04,-319.5 2327.28,-319.5 2348.53,-319.5 2365.78,-321.49 2365.78,-323.95 2365.78,-323.95 2365.78,-364.05 2365.78,-364.05"/>
<path fill="none" stroke="#548235" stroke-width="1.3" d="M2365.78,-364.05C2365.78,-361.59 2348.53,-359.59 2327.28,-359.59 2306.04,-359.59 2288.78,-361.59 2288.78,-364.05"/>
<text text-anchor="middle" x="2327.28" y="-347.2" font-family="Arial" font-size="11.00">D1</text>
<text text-anchor="middle" x="2327.28" y="-335.2" font-family="Arial" font-size="11.00">Zamówienia</text>
</g>
<!-- p54&#45;&gt;d1 -->
<g id="edge14" class="edge">
<title>p54&#45;&gt;d1</title>
<path fill="none" stroke="#3f3f3f" d="M2145.06,-305.98C2189.01,-315.2 2243.98,-326.73 2281.78,-334.66"/>
<polygon fill="#3f3f3f" stroke="#3f3f3f" points="2281.28,-337.06 2288.64,-336.1 2282.29,-332.27 2281.28,-337.06"/>
<text text-anchor="middle" x="2225.28" y="-331.8" font-family="Arial" font-size="9.00">status kompletacji</text>
</g>
<!-- p55 -->
<g id="node8" class="node">
<title>p55</title>
<ellipse fill="#dae8fc" stroke="#2f5597" stroke-width="1.4" cx="1140.76" cy="-206" rx="89.61" ry="25.41"/>
<text text-anchor="middle" x="1140.76" y="-209.2" font-family="Arial" font-size="11.00">5.5</text>
<text text-anchor="middle" x="1140.76" y="-197.2" font-family="Arial" font-size="11.00">Uzupełnianie zapasów</text>
</g>
<!-- p55&#45;&gt;dostawca -->
<g id="edge16" class="edge">
<title>p55&#45;&gt;dostawca</title>
<path fill="none" stroke="#3f3f3f" d="M1204.08,-187.77C1263.91,-170.26 1352.44,-144.37 1403.11,-129.54"/>
<polygon fill="#3f3f3f" stroke="#3f3f3f" points="1403.97,-131.84 1410,-127.52 1402.6,-127.14 1403.97,-131.84"/>
<text text-anchor="middle" x="1310.56" y="-172.8" font-family="Arial" font-size="9.00">zamówienie uzupełnienia</text>
</g>
<!-- p55&#45;&gt;pracownik -->
<g id="edge17" class="edge">
<title>p55&#45;&gt;pracownik</title>
<path fill="none" stroke="#3f3f3f" d="M1229.98,-202.48C1279.24,-200.52 1339.31,-198.12 1383.01,-196.38"/>
<polygon fill="#3f3f3f" stroke="#3f3f3f" points="1383.25,-198.82 1390.15,-196.09 1383.06,-193.92 1383.25,-198.82"/>
<text text-anchor="middle" x="1310.56" y="-204.8" font-family="Arial" font-size="9.00">informacja o brakach</text>
</g>
<!-- d5&#45;&gt;p52 -->
<g id="edge6" class="edge">
<title>d5&#45;&gt;p52</title>
<path fill="none" stroke="#3f3f3f" d="M778.16,-270.25C768.9,-267.24 759.26,-264.64 749.96,-263 715.01,-256.84 675.81,-258.76 642.78,-262.86"/>
<polygon fill="#3f3f3f" stroke="#3f3f3f" points="642.45,-260.43 635.83,-263.76 643.08,-265.29 642.45,-260.43"/>
<text text-anchor="middle" x="711.96" y="-265.8" font-family="Arial" font-size="9.00">stan przed zmianą</text>
</g>
<!-- d5&#45;&gt;p53 -->
<g id="edge9" class="edge">
<title>d5&#45;&gt;p53</title>
<path fill="none" stroke="#3f3f3f" d="M844.38,-317.6C856.82,-344.69 880.96,-386.81 916.96,-405 1173.6,-534.71 1533.59,-447.21 1682.71,-401.22"/>
<polygon fill="#3f3f3f" stroke="#3f3f3f" points="1683.69,-403.48 1689.65,-399.07 1682.24,-398.8 1683.69,-403.48"/>
<text text-anchor="middle" x="1310.56" y="-474.8" font-family="Arial" font-size="9.00">dostępność</text>
</g>
<!-- d5&#45;&gt;p55 -->
<g id="edge15" class="edge">
<title>d5&#45;&gt;p55</title>
<path fill="none" stroke="#3f3f3f" d="M875.88,-269.14C888.73,-262.51 903.14,-255.81 916.96,-251 960.38,-235.88 1010.42,-225.2 1052.07,-218.05"/>
<polygon fill="#3f3f3f" stroke="#3f3f3f" points="1052.72,-220.43 1059.21,-216.85 1051.9,-215.6 1052.72,-220.43"/>
<text text-anchor="middle" x="970.46" y="-253.8" font-family="Arial" font-size="9.00">poziomy minimalne i braki</text>
</g>
<!-- d1&#45;&gt;p53 -->
<g id="edge8" class="edge">
<title>d1&#45;&gt;p53</title>
<path fill="none" stroke="#3f3f3f" d="M2288.78,-347.04C2279.93,-347.72 2270.52,-348.41 2261.78,-349 2126.67,-358.09 1971.23,-366.69 1868.2,-372.13"/>
<polygon fill="#3f3f3f" stroke="#3f3f3f" points="1868.05,-369.68 1861.18,-372.5 1868.3,-374.57 1868.05,-369.68"/>
<text text-anchor="middle" x="2072.69" y="-367.8" font-family="Arial" font-size="9.00">pozycje zamówienia</text>
</g>
</g>
</svg>
