<?xml version="1.0" encoding="UTF-8" standalone="no"?>
<!DOCTYPE svg PUBLIC "-//W3C//DTD SVG 1.1//EN"
 "http://www.w3.org/Graphics/SVG/1.1/DTD/svg11.dtd">
<!-- Generated by graphviz version 2.43.0 (0)
 -->
<!-- Title: G Pages: 1 -->
<svg width="493pt" height="913pt"
 viewBox="0.00 0.00 493.00 912.97" xmlns="http://www.w3.org/2000/svg" xmlns:xlink="http://www.w3.org/1999/xlink">
<g id="graph0" class="graph" transform="scale(1 1) rotate(0) translate(4 908.97)">
<title>G</title>
<polygon fill="white" stroke="transparent" points="-4,4 -4,-908.97 489,-908.97 489,4 -4,4"/>
<text text-anchor="middle" x="242.5" y="-884.97" font-family="Arial" font-size="20.00">DFD szczegółowy &#45; 2.0 Obsługa klientów</text>
<!-- klient -->
<g id="node1" class="node">
<title>klient</title>
<path fill="#fff2cc" stroke="#b57f00" stroke-width="1.3" d="M274,-874.97C274,-874.97 244,-874.97 244,-874.97 238,-874.97 232,-868.97 232,-862.97 232,-862.97 232,-850.97 232,-850.97 232,-844.97 238,-838.97 244,-838.97 244,-838.97 274,-838.97 274,-838.97 280,-838.97 286,-844.97 286,-850.97 286,-850.97 286,-862.97 286,-862.97 286,-868.97 280,-874.97 274,-874.97"/>
<text text-anchor="middle" x="259" y="-854.17" font-family="Arial" font-size="11.00">Klient</text>
</g>
<!-- p21 -->
<g id="node3" class="node">
<title>p21</title>
<ellipse fill="#dae8fc" stroke="#2f5597" stroke-width="1.4" cx="108" cy="-741.03" rx="70.92" ry="33.88"/>
<text text-anchor="middle" x="108" y="-750.23" font-family="Arial" font-size="11.00">2.1</text>
<text text-anchor="middle" x="108" y="-738.23" font-family="Arial" font-size="11.00">Przyjęcie danych</text>
<text text-anchor="middle" x="108" y="-726.23" font-family="Arial" font-size="11.00">klienta</text>
</g>
<!-- klient&#45;&gt;p21 -->
<g id="edge1" class="edge">
<title>klient&#45;&gt;p21</title>
<path fill="none" stroke="#3f3f3f" d="M231.67,-848.71C209.77,-841.88 179.13,-829.99 157,-811.97 146.23,-803.2 136.78,-791.48 129.13,-780.15"/>
<polygon fill="#3f3f3f" stroke="#3f3f3f" points="131.17,-778.8 125.29,-774.28 127.07,-781.48 131.17,-778.8"/>
<text text-anchor="middle" x="192.5" y="-804.77" font-family="Arial" font-size="9.00">formularz danych</text>
</g>
<!-- pracownik -->
<g id="node2" class="node">
<title>pracownik</title>
<path fill="#fff2cc" stroke="#b57f00" stroke-width="1.3" d="M94,-36C94,-36 12,-36 12,-36 6,-36 0,-30 0,-24 0,-24 0,-12 0,-12 0,-6 6,0 12,0 12,0 94,0 94,0 100,0 106,-6 106,-12 106,-12 106,-24 106,-24 106,-30 100,-36 94,-36"/>
<text text-anchor="middle" x="53" y="-15.2" font-family="Arial" font-size="11.00">Pracownik obsługi</text>
</g>
<!-- pracownik&#45;&gt;p21 -->
<g id="edge2" class="edge">
<title>pracownik&#45;&gt;p21</title>
<path fill="none" stroke="#3f3f3f" d="M44.67,-36.31C34.9,-58.26 20,-97.52 20,-132.94 20,-618.63 20,-618.63 20,-618.63 20,-653.24 43.73,-684.64 66.55,-706.83"/>
<polygon fill="#3f3f3f" stroke="#3f3f3f" points="64.93,-708.68 71.7,-711.71 68.3,-705.12 64.93,-708.68"/>
<text text-anchor="middle" x="50.5" y="-382.12" font-family="Arial" font-size="9.00">dane z obsługi</text>
<text text-anchor="middle" x="50.5" y="-372.12" font-family="Arial" font-size="9.00">bezpośredniej</text>
</g>
<!-- p22 -->
<g id="node4" class="node">
<title>p22</title>
<ellipse fill="#dae8fc" stroke="#2f5597" stroke-width="1.4" cx="254" cy="-617.63" rx="79.39" ry="25.41"/>
<text text-anchor="middle" x="254" y="-620.83" font-family="Arial" font-size="11.00">2.2</text>
<text text-anchor="middle" x="254" y="-608.83" font-family="Arial" font-size="11.00">Weryfikacja danych</text>
</g>
<!-- p21&#45;&gt;p22 -->
<g id="edge3" class="edge">
<title>p21&#45;&gt;p22</title>
<path fill="none" stroke="#3f3f3f" d="M135.62,-709.39C147.76,-696.63 162.54,-682.04 177,-670.09 187.87,-661.1 200.33,-652.24 212.02,-644.46"/>
<polygon fill="#3f3f3f" stroke="#3f3f3f" points="213.54,-646.39 218.04,-640.5 210.85,-642.29 213.54,-646.39"/>
<text text-anchor="middle" x="202.5" y="-672.89" font-family="Arial" font-size="9.00">dane klienta</text>
</g>
<!-- p22&#45;&gt;klient -->
<g id="edge5" class="edge">
<title>p22&#45;&gt;klient</title>
<path fill="none" stroke="#3f3f3f" d="M254.52,-643.13C255.48,-688.8 257.53,-786.42 258.49,-831.82"/>
<polygon fill="#3f3f3f" stroke="#3f3f3f" points="256.04,-831.95 258.64,-838.9 260.94,-831.85 256.04,-831.95"/>
<text text-anchor="middle" x="292.5" y="-738.83" font-family="Arial" font-size="9.00">prośba o korektę</text>
</g>
<!-- p23 -->
<g id="node5" class="node">
<title>p23</title>
<ellipse fill="#dae8fc" stroke="#2f5597" stroke-width="1.4" cx="198" cy="-502.72" rx="86.03" ry="25.41"/>
<text text-anchor="middle" x="198" y="-505.92" font-family="Arial" font-size="11.00">2.3</text>
<text text-anchor="middle" x="198" y="-493.92" font-family="Arial" font-size="11.00">Przypisanie do rejonu</text>
</g>
<!-- p22&#45;&gt;p23 -->
<g id="edge4" class="edge">
<title>p22&#45;&gt;p23</title>
<path fill="none" stroke="#3f3f3f" d="M241.99,-592.41C233.63,-575.56 222.41,-552.94 213.4,-534.77"/>
<polygon fill="#3f3f3f" stroke="#3f3f3f" points="215.49,-533.47 210.19,-528.29 211.1,-535.65 215.49,-533.47"/>
<text text-anchor="middle" x="260.5" y="-557.98" font-family="Arial" font-size="9.00">dane poprawne</text>
</g>
<!-- p24 -->
<g id="node6" class="node">
<title>p24</title>
<ellipse fill="#dae8fc" stroke="#2f5597" stroke-width="1.4" cx="198" cy="-379.32" rx="77.15" ry="33.88"/>
<text text-anchor="middle" x="198" y="-388.52" font-family="Arial" font-size="11.00">2.4</text>
<text text-anchor="middle" x="198" y="-376.52" font-family="Arial" font-size="11.00">Zapis / aktualizacja</text>
<text text-anchor="middle" x="198" y="-364.52" font-family="Arial" font-size="11.00">klienta</text>
</g>
<!-- p23&#45;&gt;p24 -->
<g id="edge7" class="edge">
<title>p23&#45;&gt;p24</title>
<path fill="none" stroke="#3f3f3f" d="M198,-477.15C198,-461.01 198,-439.5 198,-420.85"/>
<polygon fill="#3f3f3f" stroke="#3f3f3f" points="200.45,-420.6 198,-413.6 195.55,-420.6 200.45,-420.6"/>
<text text-anchor="middle" x="224.5" y="-443.06" font-family="Arial" font-size="9.00">klient + rejon</text>
</g>
<!-- d2 -->
<g id="node8" class="node">
<title>d2</title>
<path fill="#e2f0d9" stroke="#548235" stroke-width="1.3" d="M214,-276.68C214,-279.14 201.9,-281.13 187,-281.13 172.1,-281.13 160,-279.14 160,-276.68 160,-276.68 160,-236.58 160,-236.58 160,-234.13 172.1,-232.13 187,-232.13 201.9,-232.13 214,-234.13 214,-236.58 214,-236.58 214,-276.68 214,-276.68"/>
<path fill="none" stroke="#548235" stroke-width="1.3" d="M214,-276.68C214,-274.22 201.9,-272.22 187,-272.22 172.1,-272.22 160,-274.22 160,-276.68"/>
<text text-anchor="middle" x="187" y="-259.83" font-family="Arial" font-size="11.00">D2</text>
<text text-anchor="middle" x="187" y="-247.83" font-family="Arial" font-size="11.00">Klienci</text>
</g>
<!-- p24&#45;&gt;d2 -->
<g id="edge8" class="edge">
<title>p24&#45;&gt;d2</title>
<path fill="none" stroke="#3f3f3f" d="M194.99,-345.34C193.38,-327.63 191.4,-305.93 189.82,-288.55"/>
<polygon fill="#3f3f3f" stroke="#3f3f3f" points="192.24,-288.14 189.17,-281.39 187.36,-288.58 192.24,-288.14"/>
<text text-anchor="middle" x="221" y="-311.18" font-family="Arial" font-size="9.00">rekord klienta</text>
</g>
<!-- p25 -->
<g id="node7" class="node">
<title>p25</title>
<ellipse fill="#dae8fc" stroke="#2f5597" stroke-width="1.4" cx="245" cy="-133.94" rx="88.28" ry="33.88"/>
<text text-anchor="middle" x="245" y="-143.14" font-family="Arial" font-size="11.00">2.5</text>
<text text-anchor="middle" x="245" y="-131.14" font-family="Arial" font-size="11.00">Udostępnienie danych</text>
<text text-anchor="middle" x="245" y="-119.14" font-family="Arial" font-size="11.00">do zamówień</text>
</g>
<!-- p25&#45;&gt;klient -->
<g id="edge12" class="edge">
<title>p25&#45;&gt;klient</title>
<path fill="none" stroke="#3f3f3f" d="M308.19,-157.71C348.8,-176.85 394,-208.69 394,-255.63 394,-742.03 394,-742.03 394,-742.03 394,-794.8 333.03,-828.1 293.03,-844.27"/>
<polygon fill="#3f3f3f" stroke="#3f3f3f" points="291.94,-842.07 286.32,-846.9 293.73,-846.63 291.94,-842.07"/>
<text text-anchor="middle" x="439.5" y="-500.52" font-family="Arial" font-size="9.00">potwierdzenie danych</text>
</g>
<!-- p25&#45;&gt;pracownik -->
<g id="edge11" class="edge">
<title>p25&#45;&gt;pracownik</title>
<path fill="none" stroke="#3f3f3f" d="M198.03,-105.07C164.14,-84.95 119.1,-58.23 88.26,-39.92"/>
<polygon fill="#3f3f3f" stroke="#3f3f3f" points="89.17,-37.62 81.9,-36.15 86.67,-41.83 89.17,-37.62"/>
<text text-anchor="middle" x="169" y="-65.8" font-family="Arial" font-size="9.00">profil klienta</text>
</g>
<!-- d2&#45;&gt;p25 -->
<g id="edge9" class="edge">
<title>d2&#45;&gt;p25</title>
<path fill="none" stroke="#3f3f3f" d="M193.81,-232.08C197.45,-220.62 202.36,-206.78 208,-194.88 211.41,-187.69 215.48,-180.28 219.65,-173.23"/>
<polygon fill="#3f3f3f" stroke="#3f3f3f" points="221.97,-174.13 223.49,-166.87 217.77,-171.6 221.97,-174.13"/>
<text text-anchor="middle" x="233.5" y="-197.68" font-family="Arial" font-size="9.00">dane klienta</text>
</g>
<!-- d3 -->
<g id="node9" class="node">
<title>d3</title>
<path fill="#e2f0d9" stroke="#548235" stroke-width="1.3" d="M135,-637.68C135,-640.14 122.9,-642.13 108,-642.13 93.1,-642.13 81,-640.14 81,-637.68 81,-637.68 81,-597.58 81,-597.58 81,-595.13 93.1,-593.13 108,-593.13 122.9,-593.13 135,-595.13 135,-597.58 135,-597.58 135,-637.68 135,-637.68"/>
<path fill="none" stroke="#548235" stroke-width="1.3" d="M135,-637.68C135,-635.22 122.9,-633.22 108,-633.22 93.1,-633.22 81,-635.22 81,-637.68"/>
<text text-anchor="middle" x="108" y="-620.83" font-family="Arial" font-size="11.00">D3</text>
<text text-anchor="middle" x="108" y="-608.83" font-family="Arial" font-size="11.00">Rejony</text>
</g>
<!-- d3&#45;&gt;p23 -->
<g id="edge6" class="edge">
<title>d3&#45;&gt;p23</title>
<path fill="none" stroke="#3f3f3f" d="M126.43,-593.51C140.32,-576.09 159.47,-552.06 174.46,-533.25"/>
<polygon fill="#3f3f3f" stroke="#3f3f3f" points="176.53,-534.59 178.97,-527.59 172.7,-531.54 176.53,-534.59"/>
<text text-anchor="middle" x="182" y="-557.98" font-family="Arial" font-size="9.00">lista rejonów</text>
</g>
<!-- d1 -->
<g id="node10" class="node">
<title>d1</title>
<path fill="#e2f0d9" stroke="#548235" stroke-width="1.3" d="M331.5,-276.68C331.5,-279.14 314.24,-281.13 293,-281.13 271.76,-281.13 254.5,-279.14 254.5,-276.68 254.5,-276.68 254.5,-236.58 254.5,-236.58 254.5,-234.13 271.76,-232.13 293,-232.13 314.24,-232.13 331.5,-234.13 331.5,-236.58 331.5,-236.58 331.5,-276.68 331.5,-276.68"/>
<path fill="none" stroke="#548235" stroke-width="1.3" d="M331.5,-276.68C331.5,-274.22 314.24,-272.22 293,-272.22 271.76,-272.22 254.5,-274.22 254.5,-276.68"/>
<text text-anchor="middle" x="293" y="-259.83" font-family="Arial" font-size="11.00">D1</text>
<text text-anchor="middle" x="293" y="-247.83" font-family="Arial" font-size="11.00">Zamówienia</text>
</g>
<!-- d1&#45;&gt;p25 -->
<g id="edge10" class="edge">
<title>d1&#45;&gt;p25</title>
<path fill="none" stroke="#3f3f3f" d="M283.63,-232.08C277.09,-215.63 268.21,-193.29 260.61,-174.18"/>
<polygon fill="#3f3f3f" stroke="#3f3f3f" points="262.84,-173.17 257.98,-167.57 258.29,-174.98 262.84,-173.17"/>
<text text-anchor="middle" x="309.5" y="-197.68" font-family="Arial" font-size="9.00">historia zamówień</text>
</g>
</g>
</svg>
