<?xml version="1.0" encoding="UTF-8" standalone="no"?>
<!DOCTYPE svg PUBLIC "-//W3C//DTD SVG 1.1//EN"
 "http://www.w3.org/Graphics/SVG/1.1/DTD/svg11.dtd">
<!-- Generated by graphviz version 2.43.0 (0)
 -->
<!-- Title: G Pages: 1 -->
<svg width="707pt" height="319pt"
 viewBox="0.00 0.00 706.69 318.99" xmlns="http://www.w3.org/2000/svg" xmlns:xlink="http://www.w3.org/1999/xlink">
<g id="graph0" class="graph" transform="scale(1 1) rotate(0) translate(4 314.99)">
<title>G</title>
<polygon fill="white" stroke="transparent" points="-4,4 -4,-314.99 702.69,-314.99 702.69,4 -4,4"/>
<text text-anchor="middle" x="349.35" y="-290.99" font-family="Arial" font-size="20.00">DFD &#45; Diagram kontekstowy systemu obsługi zamówień</text>
<!-- klient -->
<g id="node1" class="node">
<title>klient</title>
<path fill="#fff2cc" stroke="#b57f00" stroke-width="1.3" d="M42,-172.99C42,-172.99 12,-172.99 12,-172.99 6,-172.99 0,-166.99 0,-160.99 0,-160.99 0,-148.99 0,-148.99 0,-142.99 6,-136.99 12,-136.99 12,-136.99 42,-136.99 42,-136.99 48,-136.99 54,-142.99 54,-148.99 54,-148.99 54,-160.99 54,-160.99 54,-166.99 48,-172.99 42,-172.99"/>
<text text-anchor="middle" x="27" y="-152.19" font-family="Arial" font-size="11.00">Klient</text>
</g>
<!-- system -->
<g id="node5" class="node">
<title>system</title>
<ellipse fill="#dae8fc" stroke="#2f5597" stroke-width="1.4" cx="298.35" cy="-154.99" rx="64.19" ry="33.88"/>
<text text-anchor="middle" x="298.35" y="-164.19" font-family="Arial" font-size="11.00">0</text>
<text text-anchor="middle" x="298.35" y="-152.19" font-family="Arial" font-size="11.00">System obsługi</text>
<text text-anchor="middle" x="298.35" y="-140.19" font-family="Arial" font-size="11.00">zamówień</text>
</g>
<!-- klient&#45;&gt;system -->
<g id="edge1" class="edge">
<title>klient&#45;&gt;system</title>
<path fill="none" stroke="#3f3f3f" d="M54.32,-154.99C93.92,-154.99 170.23,-154.99 226.82,-154.99"/>
<polygon fill="#3f3f3f" stroke="#3f3f3f" points="226.97,-157.44 233.97,-154.99 226.97,-152.54 226.97,-157.44"/>
<text text-anchor="middle" x="144" y="-157.79" font-family="Arial" font-size="9.00">dane klienta, zamówienie</text>
</g>
<!-- pracownik -->
<g id="node2" class="node">
<title>pracownik</title>
<path fill="#fff2cc" stroke="#b57f00" stroke-width="1.3" d="M680.69,-274.99C680.69,-274.99 598.69,-274.99 598.69,-274.99 592.69,-274.99 586.69,-268.99 586.69,-262.99 586.69,-262.99 586.69,-250.99 586.69,-250.99 586.69,-244.99 592.69,-238.99 598.69,-238.99 598.69,-238.99 680.69,-238.99 680.69,-238.99 686.69,-238.99 692.69,-244.99 692.69,-250.99 692.69,-250.99 692.69,-262.99 692.69,-262.99 692.69,-268.99 686.69,-274.99 680.69,-274.99"/>
<text text-anchor="middle" x="639.69" y="-254.19" font-family="Arial" font-size="11.00">Pracownik obsługi</text>
</g>
<!-- pracownik&#45;&gt;system -->
<g id="edge3" class="edge">
<title>pracownik&#45;&gt;system</title>
<path fill="none" stroke="#3f3f3f" d="M586.51,-241.3C525.92,-223.09 426.09,-193.08 361.54,-173.68"/>
<polygon fill="#3f3f3f" stroke="#3f3f3f" points="362.03,-171.27 354.62,-171.6 360.62,-175.96 362.03,-171.27"/>
<text text-anchor="middle" x="471.69" y="-231.79" font-family="Arial" font-size="9.00">dyspozycje obsługi, korekty danych</text>
</g>
<!-- magazynier -->
<g id="node3" class="node">
<title>magazynier</title>
<path fill="#fff2cc" stroke="#b57f00" stroke-width="1.3" d="M664.69,-181.99C664.69,-181.99 614.69,-181.99 614.69,-181.99 608.69,-181.99 602.69,-175.99 602.69,-169.99 602.69,-169.99 602.69,-157.99 602.69,-157.99 602.69,-151.99 608.69,-145.99 614.69,-145.99 614.69,-145.99 664.69,-145.99 664.69,-145.99 670.69,-145.99 676.69,-151.99 676.69,-157.99 676.69,-157.99 676.69,-169.99 676.69,-169.99 676.69,-175.99 670.69,-181.99 664.69,-181.99"/>
<text text-anchor="middle" x="639.69" y="-161.19" font-family="Arial" font-size="11.00">Magazynier</text>
</g>
<!-- magazynier&#45;&gt;system -->
<g id="edge5" class="edge">
<title>magazynier&#45;&gt;system</title>
<path fill="none" stroke="#3f3f3f" d="M604.55,-145.83C589.42,-138.76 571.13,-131.52 553.69,-127.99 482.26,-113.48 461.82,-117.44 389.69,-127.99 379.69,-129.45 369.26,-131.78 359.18,-134.47"/>
<polygon fill="#3f3f3f" stroke="#3f3f3f" points="358.37,-132.15 352.27,-136.38 359.67,-136.87 358.37,-132.15"/>
<text text-anchor="middle" x="471.69" y="-130.79" font-family="Arial" font-size="9.00">stany, potwierdzenia wydań</text>
</g>
<!-- kierownik -->
<g id="node4" class="node">
<title>kierownik</title>
<path fill="#fff2cc" stroke="#b57f00" stroke-width="1.3" d="M686.69,-63.99C686.69,-63.99 592.69,-63.99 592.69,-63.99 586.69,-63.99 580.69,-57.99 580.69,-51.99 580.69,-51.99 580.69,-39.99 580.69,-39.99 580.69,-33.99 586.69,-27.99 592.69,-27.99 592.69,-27.99 686.69,-27.99 686.69,-27.99 692.69,-27.99 698.69,-33.99 698.69,-39.99 698.69,-39.99 698.69,-51.99 698.69,-51.99 698.69,-57.99 692.69,-63.99 686.69,-63.99"/>
<text text-anchor="middle" x="639.69" y="-43.19" font-family="Arial" font-size="11.00">Kierownik sprzedaży</text>
</g>
<!-- kierownik&#45;&gt;system -->
<g id="edge7" class="edge">
<title>kierownik&#45;&gt;system</title>
<path fill="none" stroke="#3f3f3f" d="M598.04,-27.81C546.37,-7.64 455.96,17.69 389.69,-17.99 351.99,-38.29 327.41,-81.98 313.55,-114.59"/>
<polygon fill="#3f3f3f" stroke="#3f3f3f" points="311.16,-113.97 310.75,-121.37 315.69,-115.84 311.16,-113.97"/>
<text text-anchor="middle" x="471.69" y="-20.79" font-family="Arial" font-size="9.00">parametry rejonów, zapytania raportowe</text>
</g>
<!-- system&#45;&gt;klient -->
<g id="edge2" class="edge">
<title>system&#45;&gt;klient</title>
<path fill="none" stroke="#3f3f3f" d="M239.82,-140.29C228.99,-138.08 217.7,-136.16 207,-134.99 151.33,-128.9 136.09,-124.94 81,-134.99 74.39,-136.19 67.54,-138.18 61.04,-140.44"/>
<polygon fill="#3f3f3f" stroke="#3f3f3f" points="59.87,-138.26 54.15,-142.98 61.57,-142.86 59.87,-138.26"/>
<text text-anchor="middle" x="144" y="-137.79" font-family="Arial" font-size="9.00">potwierdzenie, status realizacji</text>
</g>
<!-- system&#45;&gt;pracownik -->
<g id="edge4" class="edge">
<title>system&#45;&gt;pracownik</title>
<path fill="none" stroke="#3f3f3f" d="M320.01,-186.99C336.09,-208.81 360.53,-236.01 389.69,-248.99 450.08,-275.85 527.1,-273.5 579.37,-267.23"/>
<polygon fill="#3f3f3f" stroke="#3f3f3f" points="579.94,-269.63 586.58,-266.32 579.33,-264.77 579.94,-269.63"/>
<text text-anchor="middle" x="471.69" y="-273.79" font-family="Arial" font-size="9.00">informacje o zamówieniach i klientach</text>
</g>
<!-- system&#45;&gt;magazynier -->
<g id="edge6" class="edge">
<title>system&#45;&gt;magazynier</title>
<path fill="none" stroke="#3f3f3f" d="M362.78,-156.67C430.48,-158.46 535.94,-161.26 594.94,-162.82"/>
<polygon fill="#3f3f3f" stroke="#3f3f3f" points="595.18,-165.28 602.25,-163.02 595.31,-160.38 595.18,-165.28"/>
<text text-anchor="middle" x="471.69" y="-163.79" font-family="Arial" font-size="9.00">dyspozycje rezerwacji i kompletacji</text>
</g>
<!-- system&#45;&gt;kierownik -->
<g id="edge8" class="edge">
<title>system&#45;&gt;kierownik</title>
<path fill="none" stroke="#3f3f3f" d="M336.92,-127.64C352.58,-117.34 371.37,-106.35 389.69,-98.99 449.62,-74.89 522.26,-61.03 573.58,-53.58"/>
<polygon fill="#3f3f3f" stroke="#3f3f3f" points="574.09,-55.98 580.67,-52.57 573.4,-51.13 574.09,-55.98"/>
<text text-anchor="middle" x="471.69" y="-101.79" font-family="Arial" font-size="9.00">raporty rejonów, sprzedaży i zapasów</text>
</g>
</g>
</svg>
