<?xml version="1.0" encoding="UTF-8" standalone="no"?>
<!DOCTYPE svg PUBLIC "-//W3C//DTD SVG 1.1//EN"
 "http://www.w3.org/Graphics/SVG/1.1/DTD/svg11.dtd">
<!-- Generated by graphviz version 2.43.0 (0)
 -->
<!-- Title: G Pages: 1 -->
<svg width="2037pt" height="350pt"
 viewBox="0.00 0.00 2036.78 350.46" xmlns="http://www.w3.org/2000/svg" xmlns:xlink="http://www.w3.org/1999/xlink">
<g id="graph0" class="graph" transform="scale(1 1) rotate(0) translate(4 346.46)">
<title>G</title>
<polygon fill="white" stroke="transparent" points="-4,4 -4,-346.46 2032.78,-346.46 2032.78,4 -4,4"/>
<text text-anchor="middle" x="1014.39" y="-322.46" font-family="Arial" font-size="20.00">DFD szczegółowy &#45; 2.0 Obsługa klientów</text>
<!-- klient -->
<g id="node1" class="node">
<title>klient</title>
<path fill="#fff2cc" stroke="#b57f00" stroke-width="1.3" d="M42,-176.46C42,-176.46 12,-176.46 12,-176.46 6,-176.46 0,-170.46 0,-164.46 0,-164.46 0,-152.46 0,-152.46 0,-146.46 6,-140.46 12,-140.46 12,-140.46 42,-140.46 42,-140.46 48,-140.46 54,-146.46 54,-152.46 54,-152.46 54,-164.46 54,-164.46 54,-170.46 48,-176.46 42,-176.46"/>
<text text-anchor="middle" x="27" y="-155.66" font-family="Arial" font-size="11.00">Klient</text>
</g>
<!-- p21 -->
<g id="node3" class="node">
<title>p21</title>
<ellipse fill="#dae8fc" stroke="#2f5597" stroke-width="1.4" cx="273.05" cy="-158.46" rx="94.09" ry="25.41"/>
<text text-anchor="middle" x="273.05" y="-161.66" font-family="Arial" font-size="11.00">2.1</text>
<text text-anchor="middle" x="273.05" y="-149.66" font-family="Arial" font-size="11.00">Przyjęcie danych klienta</text>
</g>
<!-- klient&#45;&gt;p21 -->
<g id="edge1" class="edge">
<title>klient&#45;&gt;p21</title>
<path fill="none" stroke="#3f3f3f" d="M54.12,-158.46C82.3,-158.46 128.94,-158.46 171.85,-158.46"/>
<polygon fill="#3f3f3f" stroke="#3f3f3f" points="171.98,-160.91 178.98,-158.46 171.98,-156.01 171.98,-160.91"/>
<text text-anchor="middle" x="116.5" y="-161.26" font-family="Arial" font-size="9.00">formularz danych</text>
</g>
<!-- pracownik -->
<g id="node2" class="node">
<title>pracownik</title>
<path fill="#fff2cc" stroke="#b57f00" stroke-width="1.3" d="M2016.78,-176.46C2016.78,-176.46 1934.78,-176.46 1934.78,-176.46 1928.78,-176.46 1922.78,-170.46 1922.78,-164.46 1922.78,-164.46 1922.78,-152.46 1922.78,-152.46 1922.78,-146.46 1928.78,-140.46 1934.78,-140.46 1934.78,-140.46 2016.78,-140.46 2016.78,-140.46 2022.78,-140.46 2028.78,-146.46 2028.78,-152.46 2028.78,-152.46 2028.78,-164.46 2028.78,-164.46 2028.78,-170.46 2022.78,-176.46 2016.78,-176.46"/>
<text text-anchor="middle" x="1975.78" y="-155.66" font-family="Arial" font-size="11.00">Pracownik obsługi</text>
</g>
<!-- pracownik&#45;&gt;p21 -->
<g id="edge2" class="edge">
<title>pracownik&#45;&gt;p21</title>
<path fill="none" stroke="#3f3f3f" d="M1922.59,-170.89C1864.66,-183.59 1768.21,-201.46 1684.01,-201.46 550.29,-201.46 550.29,-201.46 550.29,-201.46 482.21,-201.46 405.82,-188.55 350.65,-176.88"/>
<polygon fill="#3f3f3f" stroke="#3f3f3f" points="351.05,-174.46 343.69,-175.39 350.02,-179.25 351.05,-174.46"/>
<text text-anchor="middle" x="1130.13" y="-204.26" font-family="Arial" font-size="9.00">dane z obsługi bezpośredniej</text>
</g>
<!-- p22 -->
<g id="node4" class="node">
<title>p22</title>
<ellipse fill="#dae8fc" stroke="#2f5597" stroke-width="1.4" cx="551.29" cy="-25.46" rx="79.39" ry="25.41"/>
<text text-anchor="middle" x="551.29" y="-28.66" font-family="Arial" font-size="11.00">2.2</text>
<text text-anchor="middle" x="551.29" y="-16.66" font-family="Arial" font-size="11.00">Weryfikacja danych</text>
</g>
<!-- p21&#45;&gt;p22 -->
<g id="edge3" class="edge">
<title>p21&#45;&gt;p22</title>
<path fill="none" stroke="#3f3f3f" d="M325.05,-137.04C359.31,-122.35 405.29,-102.04 445.09,-82.46 464.84,-72.73 486.27,-61.29 504.6,-51.22"/>
<polygon fill="#3f3f3f" stroke="#3f3f3f" points="506.26,-53.11 511.21,-47.58 503.89,-48.81 506.26,-53.11"/>
<text text-anchor="middle" x="419.59" y="-108.26" font-family="Arial" font-size="9.00">dane klienta</text>
</g>
<!-- p22&#45;&gt;klient -->
<g id="edge5" class="edge">
<title>p22&#45;&gt;klient</title>
<path fill="none" stroke="#3f3f3f" d="M480.45,-37.06C405.28,-50.27 282.55,-73.88 179,-103.46 137.47,-115.32 90.96,-132.94 60.67,-145.03"/>
<polygon fill="#3f3f3f" stroke="#3f3f3f" points="59.67,-142.79 54.08,-147.67 61.49,-147.33 59.67,-142.79"/>
<text text-anchor="middle" x="273.05" y="-106.26" font-family="Arial" font-size="9.00">prośba o korektę</text>
</g>
<!-- p23 -->
<g id="node5" class="node">
<title>p23</title>
<ellipse fill="#dae8fc" stroke="#2f5597" stroke-width="1.4" cx="835.75" cy="-96.46" rx="86.03" ry="25.41"/>
<text text-anchor="middle" x="835.75" y="-99.66" font-family="Arial" font-size="11.00">2.3</text>
<text text-anchor="middle" x="835.75" y="-87.66" font-family="Arial" font-size="11.00">Przypisanie do rejonu</text>
</g>
<!-- p22&#45;&gt;p23 -->
<g id="edge4" class="edge">
<title>p22&#45;&gt;p23</title>
<path fill="none" stroke="#3f3f3f" d="M614.27,-41.04C657.99,-52.03 716.68,-66.78 762.51,-78.3"/>
<polygon fill="#3f3f3f" stroke="#3f3f3f" points="762.08,-80.72 769.47,-80.05 763.28,-75.96 762.08,-80.72"/>
<text text-anchor="middle" x="689.98" y="-70.26" font-family="Arial" font-size="9.00">dane poprawne</text>
</g>
<!-- p24 -->
<g id="node6" class="node">
<title>p24</title>
<ellipse fill="#dae8fc" stroke="#2f5597" stroke-width="1.4" cx="1130.13" cy="-96.46" rx="101.23" ry="25.41"/>
<text text-anchor="middle" x="1130.13" y="-99.66" font-family="Arial" font-size="11.00">2.4</text>
<text text-anchor="middle" x="1130.13" y="-87.66" font-family="Arial" font-size="11.00">Zapis / aktualizacja klienta</text>
</g>
<!-- p23&#45;&gt;p24 -->
<g id="edge7" class="edge">
<title>p23&#45;&gt;p24</title>
<path fill="none" stroke="#3f3f3f" d="M922.1,-96.46C953.21,-96.46 988.79,-96.46 1021.57,-96.46"/>
<polygon fill="#3f3f3f" stroke="#3f3f3f" points="1021.96,-98.91 1028.96,-96.46 1021.96,-94.01 1021.96,-98.91"/>
<text text-anchor="middle" x="975.52" y="-99.26" font-family="Arial" font-size="9.00">klient + rejon</text>
</g>
<!-- d2 -->
<g id="node8" class="node">
<title>d2</title>
<path fill="#e2f0d9" stroke="#548235" stroke-width="1.3" d="M1406.75,-135.5C1406.75,-137.96 1394.65,-139.96 1379.75,-139.96 1364.85,-139.96 1352.75,-137.96 1352.75,-135.5 1352.75,-135.5 1352.75,-95.41 1352.75,-95.41 1352.75,-92.95 1364.85,-90.95 1379.75,-90.95 1394.65,-90.95 1406.75,-92.95 1406.75,-95.41 1406.75,-95.41 1406.75,-135.5 1406.75,-135.5"/>
<path fill="none" stroke="#548235" stroke-width="1.3" d="M1406.75,-135.5C1406.75,-133.05 1394.65,-131.05 1379.75,-131.05 1364.85,-131.05 1352.75,-133.05 1352.75,-135.5"/>
<text text-anchor="middle" x="1379.75" y="-118.66" font-family="Arial" font-size="11.00">D2</text>
<text text-anchor="middle" x="1379.75" y="-106.66" font-family="Arial" font-size="11.00">Klienci</text>
</g>
<!-- p24&#45;&gt;d2 -->
<g id="edge8" class="edge">
<title>p24&#45;&gt;d2</title>
<path fill="none" stroke="#3f3f3f" d="M1227.22,-103.83C1268.95,-107.03 1315.12,-110.57 1345.39,-112.9"/>
<polygon fill="#3f3f3f" stroke="#3f3f3f" points="1345.57,-115.37 1352.74,-113.46 1345.94,-110.48 1345.57,-115.37"/>
<text text-anchor="middle" x="1286.25" y="-113.26" font-family="Arial" font-size="9.00">rekord klienta</text>
</g>
<!-- p25 -->
<g id="node7" class="node">
<title>p25</title>
<ellipse fill="#dae8fc" stroke="#2f5597" stroke-width="1.4" cx="1683.01" cy="-115.46" rx="135.53" ry="25.41"/>
<text text-anchor="middle" x="1683.01" y="-118.66" font-family="Arial" font-size="11.00">2.5</text>
<text text-anchor="middle" x="1683.01" y="-106.66" font-family="Arial" font-size="11.00">Udostępnienie danych do zamówień</text>
</g>
<!-- p25&#45;&gt;klient -->
<g id="edge12" class="edge">
<title>p25&#45;&gt;klient</title>
<path fill="none" stroke="#3f3f3f" d="M1660.71,-140.68C1615.05,-191.72 1502.02,-302.46 1380.75,-302.46 272.05,-302.46 272.05,-302.46 272.05,-302.46 178.35,-302.46 89,-222.76 49.38,-181.95"/>
<polygon fill="#3f3f3f" stroke="#3f3f3f" points="50.96,-180.05 44.35,-176.69 47.42,-183.44 50.96,-180.05"/>
<text text-anchor="middle" x="835.75" y="-305.26" font-family="Arial" font-size="9.00">potwierdzenie danych</text>
</g>
<!-- p25&#45;&gt;pracownik -->
<g id="edge11" class="edge">
<title>p25&#45;&gt;pracownik</title>
<path fill="none" stroke="#3f3f3f" d="M1790.22,-131.16C1832.5,-137.42 1879.56,-144.37 1915.57,-149.7"/>
<polygon fill="#3f3f3f" stroke="#3f3f3f" points="1915.34,-152.14 1922.63,-150.74 1916.06,-147.3 1915.34,-152.14"/>
<text text-anchor="middle" x="1870.78" y="-149.26" font-family="Arial" font-size="9.00">profil klienta</text>
</g>
<!-- d2&#45;&gt;p25 -->
<g id="edge9" class="edge">
<title>d2&#45;&gt;p25</title>
<path fill="none" stroke="#3f3f3f" d="M1406.96,-115.46C1437.17,-115.46 1489.22,-115.46 1539.97,-115.46"/>
<polygon fill="#3f3f3f" stroke="#3f3f3f" points="1540.12,-117.91 1547.12,-115.46 1540.12,-113.01 1540.12,-117.91"/>
<text text-anchor="middle" x="1482.75" y="-118.26" font-family="Arial" font-size="9.00">dane klienta</text>
</g>
<!-- d3 -->
<g id="node9" class="node">
<title>d3</title>
<path fill="#e2f0d9" stroke="#548235" stroke-width="1.3" d="M578.29,-135.5C578.29,-137.96 566.18,-139.96 551.29,-139.96 536.39,-139.96 524.29,-137.96 524.29,-135.5 524.29,-135.5 524.29,-95.41 524.29,-95.41 524.29,-92.95 536.39,-90.95 551.29,-90.95 566.18,-90.95 578.29,-92.95 578.29,-95.41 578.29,-95.41 578.29,-135.5 578.29,-135.5"/>
<path fill="none" stroke="#548235" stroke-width="1.3" d="M578.29,-135.5C578.29,-133.05 566.18,-131.05 551.29,-131.05 536.39,-131.05 524.29,-133.05 524.29,-135.5"/>
<text text-anchor="middle" x="551.29" y="-118.66" font-family="Arial" font-size="11.00">D3</text>
<text text-anchor="middle" x="551.29" y="-106.66" font-family="Arial" font-size="11.00">Rejony</text>
</g>
<!-- d3&#45;&gt;p23 -->
<g id="edge6" class="edge">
<title>d3&#45;&gt;p23</title>
<path fill="none" stroke="#3f3f3f" d="M578.35,-113.7C615.75,-111.19 686.47,-106.43 744.18,-102.55"/>
<polygon fill="#3f3f3f" stroke="#3f3f3f" points="744.69,-104.97 751.51,-102.06 744.36,-100.08 744.69,-104.97"/>
<text text-anchor="middle" x="689.98" y="-111.26" font-family="Arial" font-size="9.00">lista rejonów</text>
</g>
<!-- d1 -->
<g id="node10" class="node">
<title>d1</title>
<path fill="#e2f0d9" stroke="#548235" stroke-width="1.3" d="M1418.25,-45.5C1418.25,-47.96 1400.99,-49.96 1379.75,-49.96 1358.51,-49.96 1341.25,-47.96 1341.25,-45.5 1341.25,-45.5 1341.25,-5.41 1341.25,-5.41 1341.25,-2.95 1358.51,-0.95 1379.75,-0.95 1400.99,-0.95 1418.25,-2.95 1418.25,-5.41 1418.25,-5.41 1418.25,-45.5 1418.25,-45.5"/>
<path fill="none" stroke="#548235" stroke-width="1.3" d="M1418.25,-45.5C1418.25,-43.05 1400.99,-41.05 1379.75,-41.05 1358.51,-41.05 1341.25,-43.05 1341.25,-45.5"/>
<text text-anchor="middle" x="1379.75" y="-28.66" font-family="Arial" font-size="11.00">D1</text>
<text text-anchor="middle" x="1379.75" y="-16.66" font-family="Arial" font-size="11.00">Zamówienia</text>
</g>
<!-- d1&#45;&gt;p25 -->
<g id="edge10" class="edge">
<title>d1&#45;&gt;p25</title>
<path fill="none" stroke="#3f3f3f" d="M1418.3,-36.67C1464.31,-50.42 1543.52,-74.08 1603.15,-91.9"/>
<polygon fill="#3f3f3f" stroke="#3f3f3f" points="1602.54,-94.27 1609.95,-93.93 1603.94,-89.58 1602.54,-94.27"/>
<text text-anchor="middle" x="1482.75" y="-68.26" font-family="Arial" font-size="9.00">historia zamówień</text>
</g>
</g>
</svg>
