<?xml version="1.0" encoding="UTF-8" standalone="no"?>
<!DOCTYPE svg PUBLIC "-//W3C//DTD SVG 1.1//EN"
 "http://www.w3.org/Graphics/SVG/1.1/DTD/svg11.dtd">
<!-- Generated by graphviz version 2.43.0 (0)
 -->
<!-- Title: G Pages: 1 -->
<svg width="1391pt" height="627pt"
 viewBox="0.00 0.00 1391.03 626.93" xmlns="http://www.w3.org/2000/svg" xmlns:xlink="http://www.w3.org/1999/xlink">
<g id="graph0" class="graph" transform="scale(1 1) rotate(0) translate(4 622.93)">
<title>G</title>
<polygon fill="white" stroke="transparent" points="-4,4 -4,-622.93 1387.03,-622.93 1387.03,4 -4,4"/>
<text text-anchor="middle" x="691.52" y="-598.93" font-family="Arial" font-size="20.00">DFD &#45; Diagram systemowy: główne funkcje</text>
<!-- klient -->
<g id="node1" class="node">
<title>klient</title>
<path fill="#fff2cc" stroke="#b57f00" stroke-width="1.3" d="M68,-407.18C68,-407.18 38,-407.18 38,-407.18 32,-407.18 26,-401.18 26,-395.18 26,-395.18 26,-383.18 26,-383.18 26,-377.18 32,-371.18 38,-371.18 38,-371.18 68,-371.18 68,-371.18 74,-371.18 80,-377.18 80,-383.18 80,-383.18 80,-395.18 80,-395.18 80,-401.18 74,-407.18 68,-407.18"/>
<text text-anchor="middle" x="53" y="-386.38" font-family="Arial" font-size="11.00">Klient</text>
</g>
<!-- p1 -->
<g id="node5" class="node">
<title>p1</title>
<ellipse fill="#dae8fc" stroke="#2f5597" stroke-width="1.4" cx="369.78" cy="-410.18" rx="77.56" ry="25.41"/>
<text text-anchor="middle" x="369.78" y="-413.38" font-family="Arial" font-size="11.00">1.0</text>
<text text-anchor="middle" x="369.78" y="-401.38" font-family="Arial" font-size="11.00">Obsługa zamówień</text>
</g>
<!-- klient&#45;&gt;p1 -->
<g id="edge5" class="edge">
<title>klient&#45;&gt;p1</title>
<path fill="none" stroke="#3f3f3f" d="M80.26,-393.48C95.6,-395.83 115.35,-398.58 133,-400.18 183.25,-404.73 239.73,-407.22 284.8,-408.57"/>
<polygon fill="#3f3f3f" stroke="#3f3f3f" points="284.87,-411.03 291.94,-408.78 285.01,-406.13 284.87,-411.03"/>
<text text-anchor="middle" x="199" y="-410.98" font-family="Arial" font-size="9.00">zamówienie</text>
</g>
<!-- p2 -->
<g id="node6" class="node">
<title>p2</title>
<ellipse fill="#dae8fc" stroke="#2f5597" stroke-width="1.4" cx="369.78" cy="-224.18" rx="70.92" ry="25.41"/>
<text text-anchor="middle" x="369.78" y="-227.38" font-family="Arial" font-size="11.00">2.0</text>
<text text-anchor="middle" x="369.78" y="-215.38" font-family="Arial" font-size="11.00">Obsługa klientów</text>
</g>
<!-- klient&#45;&gt;p2 -->
<g id="edge1" class="edge">
<title>klient&#45;&gt;p2</title>
<path fill="none" stroke="#3f3f3f" d="M80.19,-378.18C120.61,-360.92 200.28,-325.75 265,-290.18 286.86,-278.16 310.37,-263.38 329.48,-250.84"/>
<polygon fill="#3f3f3f" stroke="#3f3f3f" points="331.29,-252.59 335.79,-246.69 328.59,-248.49 331.29,-252.59"/>
<text text-anchor="middle" x="199" y="-356.98" font-family="Arial" font-size="9.00">dane rejestracyjne / aktualizacje</text>
</g>
<!-- pracownik -->
<g id="node2" class="node">
<title>pracownik</title>
<path fill="#fff2cc" stroke="#b57f00" stroke-width="1.3" d="M94,-270.18C94,-270.18 12,-270.18 12,-270.18 6,-270.18 0,-264.18 0,-258.18 0,-258.18 0,-246.18 0,-246.18 0,-240.18 6,-234.18 12,-234.18 12,-234.18 94,-234.18 94,-234.18 100,-234.18 106,-240.18 106,-246.18 106,-246.18 106,-258.18 106,-258.18 106,-264.18 100,-270.18 94,-270.18"/>
<text text-anchor="middle" x="53" y="-249.38" font-family="Arial" font-size="11.00">Pracownik obsługi</text>
</g>
<!-- pracownik&#45;&gt;p1 -->
<g id="edge16" class="edge">
<title>pracownik&#45;&gt;p1</title>
<path fill="none" stroke="#3f3f3f" d="M106.42,-248.25C151.33,-247.26 216.28,-251.67 265,-279.18 305.57,-302.09 336.08,-347.8 353.18,-378.69"/>
<polygon fill="#3f3f3f" stroke="#3f3f3f" points="351.14,-380.06 356.63,-385.05 355.45,-377.73 351.14,-380.06"/>
<text text-anchor="middle" x="199" y="-281.98" font-family="Arial" font-size="9.00">korekta zamówienia</text>
</g>
<!-- pracownik&#45;&gt;p2 -->
<g id="edge17" class="edge">
<title>pracownik&#45;&gt;p2</title>
<path fill="none" stroke="#3f3f3f" d="M96.75,-234.05C108.31,-229.98 120.95,-226.25 133,-224.18 186.24,-215.02 247.25,-215.31 293.87,-217.73"/>
<polygon fill="#3f3f3f" stroke="#3f3f3f" points="293.81,-220.18 300.93,-218.12 294.08,-215.29 293.81,-220.18"/>
<text text-anchor="middle" x="199" y="-226.98" font-family="Arial" font-size="9.00">obsługa klienta</text>
</g>
<!-- magazynier -->
<g id="node3" class="node">
<title>magazynier</title>
<path fill="#fff2cc" stroke="#b57f00" stroke-width="1.3" d="M1351.53,-368.18C1351.53,-368.18 1301.53,-368.18 1301.53,-368.18 1295.53,-368.18 1289.53,-362.18 1289.53,-356.18 1289.53,-356.18 1289.53,-344.18 1289.53,-344.18 1289.53,-338.18 1295.53,-332.18 1301.53,-332.18 1301.53,-332.18 1351.53,-332.18 1351.53,-332.18 1357.53,-332.18 1363.53,-338.18 1363.53,-344.18 1363.53,-344.18 1363.53,-356.18 1363.53,-356.18 1363.53,-362.18 1357.53,-368.18 1351.53,-368.18"/>
<text text-anchor="middle" x="1326.53" y="-347.38" font-family="Arial" font-size="11.00">Magazynier</text>
</g>
<!-- p5 -->
<g id="node9" class="node">
<title>p5</title>
<ellipse fill="#dae8fc" stroke="#2f5597" stroke-width="1.4" cx="1025.54" cy="-303.18" rx="78.48" ry="25.41"/>
<text text-anchor="middle" x="1025.54" y="-306.38" font-family="Arial" font-size="11.00">5.0</text>
<text text-anchor="middle" x="1025.54" y="-294.38" font-family="Arial" font-size="11.00">Obsługa magazynu</text>
</g>
<!-- magazynier&#45;&gt;p5 -->
<g id="edge22" class="edge">
<title>magazynier&#45;&gt;p5</title>
<path fill="none" stroke="#3f3f3f" d="M1289.17,-340.42C1274.87,-336.83 1258.26,-332.96 1243.03,-330.18 1198.66,-322.06 1148.71,-315.65 1107.98,-311.12"/>
<polygon fill="#3f3f3f" stroke="#3f3f3f" points="1108.23,-308.68 1101.01,-310.35 1107.7,-313.55 1108.23,-308.68"/>
<text text-anchor="middle" x="1187.03" y="-332.98" font-family="Arial" font-size="9.00">przyjęcia i wydania</text>
</g>
<!-- kierownik -->
<g id="node4" class="node">
<title>kierownik</title>
<path fill="#fff2cc" stroke="#b57f00" stroke-width="1.3" d="M1072.54,-159.18C1072.54,-159.18 978.54,-159.18 978.54,-159.18 972.54,-159.18 966.54,-153.18 966.54,-147.18 966.54,-147.18 966.54,-135.18 966.54,-135.18 966.54,-129.18 972.54,-123.18 978.54,-123.18 978.54,-123.18 1072.54,-123.18 1072.54,-123.18 1078.54,-123.18 1084.54,-129.18 1084.54,-135.18 1084.54,-135.18 1084.54,-147.18 1084.54,-147.18 1084.54,-153.18 1078.54,-159.18 1072.54,-159.18"/>
<text text-anchor="middle" x="1025.54" y="-138.38" font-family="Arial" font-size="11.00">Kierownik sprzedaży</text>
</g>
<!-- p3 -->
<g id="node7" class="node">
<title>p3</title>
<ellipse fill="#dae8fc" stroke="#2f5597" stroke-width="1.4" cx="705.81" cy="-108.18" rx="70.92" ry="25.41"/>
<text text-anchor="middle" x="705.81" y="-111.38" font-family="Arial" font-size="11.00">3.0</text>
<text text-anchor="middle" x="705.81" y="-99.38" font-family="Arial" font-size="11.00">Obsługa rejonów</text>
</g>
<!-- kierownik&#45;&gt;p3 -->
<g id="edge18" class="edge">
<title>kierownik&#45;&gt;p3</title>
<path fill="none" stroke="#3f3f3f" d="M966.11,-141.82C922.17,-141.56 860.58,-139.62 807.06,-132.18 794.72,-130.46 781.68,-127.9 769.23,-125.09"/>
<polygon fill="#3f3f3f" stroke="#3f3f3f" points="769.75,-122.7 762.38,-123.5 768.65,-127.47 769.75,-122.7"/>
<text text-anchor="middle" x="863.56" y="-143.98" font-family="Arial" font-size="9.00">definicje rejonów</text>
</g>
<!-- p1&#45;&gt;klient -->
<g id="edge15" class="edge">
<title>p1&#45;&gt;klient</title>
<path fill="none" stroke="#3f3f3f" d="M306.25,-395.43C292.72,-392.83 278.44,-390.52 265,-389.18 202.42,-382.91 128.87,-385.05 87.22,-387.14"/>
<polygon fill="#3f3f3f" stroke="#3f3f3f" points="86.93,-384.7 80.07,-387.51 87.19,-389.59 86.93,-384.7"/>
<text text-anchor="middle" x="199" y="-391.98" font-family="Arial" font-size="9.00">potwierdzenie i status</text>
</g>
<!-- p4 -->
<g id="node8" class="node">
<title>p4</title>
<ellipse fill="#dae8fc" stroke="#2f5597" stroke-width="1.4" cx="705.81" cy="-468.18" rx="74.49" ry="25.41"/>
<text text-anchor="middle" x="705.81" y="-471.38" font-family="Arial" font-size="11.00">4.0</text>
<text text-anchor="middle" x="705.81" y="-459.38" font-family="Arial" font-size="11.00">Obsługa wyrobów</text>
</g>
<!-- p1&#45;&gt;p4 -->
<g id="edge8" class="edge">
<title>p1&#45;&gt;p4</title>
<path fill="none" stroke="#3f3f3f" d="M438.78,-421.98C495.05,-431.76 574.8,-445.6 632.28,-455.58"/>
<polygon fill="#3f3f3f" stroke="#3f3f3f" points="631.87,-458 639.18,-456.78 632.7,-453.17 631.87,-458"/>
<text text-anchor="middle" x="539.56" y="-452.98" font-family="Arial" font-size="9.00">pozycje zamówienia</text>
</g>
<!-- p1&#45;&gt;p5 -->
<g id="edge11" class="edge">
<title>p1&#45;&gt;p5</title>
<path fill="none" stroke="#3f3f3f" d="M411.25,-388.59C430.06,-379.31 453,-369.04 474.56,-362.18 633.51,-311.62 829.94,-302.51 939.83,-301.87"/>
<polygon fill="#3f3f3f" stroke="#3f3f3f" points="939.95,-304.32 946.94,-301.84 939.93,-299.42 939.95,-304.32"/>
<text text-anchor="middle" x="705.81" y="-327.98" font-family="Arial" font-size="9.00">zapotrzebowanie / rezerwacja</text>
</g>
<!-- d1 -->
<g id="node10" class="node">
<title>d1</title>
<path fill="#e2f0d9" stroke="#548235" stroke-width="1.3" d="M744.31,-584.22C744.31,-586.68 727.05,-588.68 705.81,-588.68 684.57,-588.68 667.31,-586.68 667.31,-584.22 667.31,-584.22 667.31,-544.13 667.31,-544.13 667.31,-541.67 684.57,-539.67 705.81,-539.67 727.05,-539.67 744.31,-541.67 744.31,-544.13 744.31,-544.13 744.31,-584.22 744.31,-584.22"/>
<path fill="none" stroke="#548235" stroke-width="1.3" d="M744.31,-584.22C744.31,-581.77 727.05,-579.77 705.81,-579.77 684.57,-579.77 667.31,-581.77 667.31,-584.22"/>
<text text-anchor="middle" x="705.81" y="-567.38" font-family="Arial" font-size="11.00">D1</text>
<text text-anchor="middle" x="705.81" y="-555.38" font-family="Arial" font-size="11.00">Zamówienia</text>
</g>
<!-- p1&#45;&gt;d1 -->
<g id="edge6" class="edge">
<title>p1&#45;&gt;d1</title>
<path fill="none" stroke="#3f3f3f" d="M386.06,-435.34C403.8,-462.22 435.67,-503.82 474.56,-525.18 533.04,-557.29 611.47,-564.23 660.04,-565.1"/>
<polygon fill="#3f3f3f" stroke="#3f3f3f" points="660.25,-567.55 667.28,-565.18 660.31,-562.65 660.25,-567.55"/>
<text text-anchor="middle" x="539.56" y="-564.98" font-family="Arial" font-size="9.00">nagłówek i pozycje zamówienia</text>
</g>
<!-- p2&#45;&gt;p3 -->
<g id="edge4" class="edge">
<title>p2&#45;&gt;p3</title>
<path fill="none" stroke="#3f3f3f" d="M402.1,-201.52C422,-188.07 448.79,-171.65 474.56,-161.18 525.53,-140.47 586.29,-126.91 632.59,-118.7"/>
<polygon fill="#3f3f3f" stroke="#3f3f3f" points="633.13,-121.09 639.6,-117.47 632.29,-116.26 633.13,-121.09"/>
<text text-anchor="middle" x="539.56" y="-163.98" font-family="Arial" font-size="9.00">adres i rejon klienta</text>
</g>
<!-- d2 -->
<g id="node11" class="node">
<title>d2</title>
<path fill="#e2f0d9" stroke="#548235" stroke-width="1.3" d="M732.81,-218.22C732.81,-220.68 720.71,-222.68 705.81,-222.68 690.91,-222.68 678.81,-220.68 678.81,-218.22 678.81,-218.22 678.81,-178.13 678.81,-178.13 678.81,-175.67 690.91,-173.67 705.81,-173.67 720.71,-173.67 732.81,-175.67 732.81,-178.13 732.81,-178.13 732.81,-218.22 732.81,-218.22"/>
<path fill="none" stroke="#548235" stroke-width="1.3" d="M732.81,-218.22C732.81,-215.77 720.71,-213.77 705.81,-213.77 690.91,-213.77 678.81,-215.77 678.81,-218.22"/>
<text text-anchor="middle" x="705.81" y="-201.38" font-family="Arial" font-size="11.00">D2</text>
<text text-anchor="middle" x="705.81" y="-189.38" font-family="Arial" font-size="11.00">Klienci</text>
</g>
<!-- p2&#45;&gt;d2 -->
<g id="edge2" class="edge">
<title>p2&#45;&gt;d2</title>
<path fill="none" stroke="#3f3f3f" d="M414.28,-204.39C432.5,-197.12 454.16,-189.8 474.56,-186.18 543.82,-173.9 626.48,-184.13 671.51,-191.75"/>
<polygon fill="#3f3f3f" stroke="#3f3f3f" points="671.36,-194.21 678.68,-193 672.2,-189.39 671.36,-194.21"/>
<text text-anchor="middle" x="539.56" y="-188.98" font-family="Arial" font-size="9.00">dane klienta</text>
</g>
<!-- p3&#45;&gt;kierownik -->
<g id="edge24" class="edge">
<title>p3&#45;&gt;kierownik</title>
<path fill="none" stroke="#3f3f3f" d="M776.65,-110.18C818.39,-111.93 872.4,-115.19 920.06,-121.18 932.81,-122.78 946.36,-124.99 959.32,-127.36"/>
<polygon fill="#3f3f3f" stroke="#3f3f3f" points="959.12,-129.81 966.45,-128.69 960.02,-125 959.12,-129.81"/>
<text text-anchor="middle" x="863.56" y="-123.98" font-family="Arial" font-size="9.00">raport rejonowy</text>
</g>
<!-- p3&#45;&gt;p5 -->
<g id="edge21" class="edge">
<title>p3&#45;&gt;p5</title>
<path fill="none" stroke="#3f3f3f" d="M742.33,-129.98C801.04,-166.01 918.11,-237.86 981.45,-276.73"/>
<polygon fill="#3f3f3f" stroke="#3f3f3f" points="980.54,-279.04 987.78,-280.62 983.1,-274.87 980.54,-279.04"/>
<text text-anchor="middle" x="863.56" y="-237.98" font-family="Arial" font-size="9.00">magazyn obsługujący rejon</text>
</g>
<!-- d3 -->
<g id="node12" class="node">
<title>d3</title>
<path fill="#e2f0d9" stroke="#548235" stroke-width="1.3" d="M1052.54,-65.22C1052.54,-67.68 1040.44,-69.68 1025.54,-69.68 1010.65,-69.68 998.54,-67.68 998.54,-65.22 998.54,-65.22 998.54,-25.13 998.54,-25.13 998.54,-22.67 1010.65,-20.67 1025.54,-20.67 1040.44,-20.67 1052.54,-22.67 1052.54,-25.13 1052.54,-25.13 1052.54,-65.22 1052.54,-65.22"/>
<path fill="none" stroke="#548235" stroke-width="1.3" d="M1052.54,-65.22C1052.54,-62.77 1040.44,-60.77 1025.54,-60.77 1010.65,-60.77 998.54,-62.77 998.54,-65.22"/>
<text text-anchor="middle" x="1025.54" y="-48.38" font-family="Arial" font-size="11.00">D3</text>
<text text-anchor="middle" x="1025.54" y="-36.38" font-family="Arial" font-size="11.00">Rejony</text>
</g>
<!-- p3&#45;&gt;d3 -->
<g id="edge19" class="edge">
<title>p3&#45;&gt;d3</title>
<path fill="none" stroke="#3f3f3f" d="M723.71,-83.17C741.34,-59.54 771.36,-25.62 807.06,-11.18 869.23,13.98 948.36,-11.33 991.99,-29.74"/>
<polygon fill="#3f3f3f" stroke="#3f3f3f" points="991.02,-31.99 998.42,-32.51 992.96,-27.49 991.02,-31.99"/>
<text text-anchor="middle" x="863.56" y="-13.98" font-family="Arial" font-size="9.00">dane rejonu</text>
</g>
<!-- d4 -->
<g id="node13" class="node">
<title>d4</title>
<path fill="#e2f0d9" stroke="#548235" stroke-width="1.3" d="M1053.04,-510.22C1053.04,-512.68 1040.72,-514.68 1025.54,-514.68 1010.37,-514.68 998.04,-512.68 998.04,-510.22 998.04,-510.22 998.04,-470.13 998.04,-470.13 998.04,-467.67 1010.37,-465.67 1025.54,-465.67 1040.72,-465.67 1053.04,-467.67 1053.04,-470.13 1053.04,-470.13 1053.04,-510.22 1053.04,-510.22"/>
<path fill="none" stroke="#548235" stroke-width="1.3" d="M1053.04,-510.22C1053.04,-507.77 1040.72,-505.77 1025.54,-505.77 1010.37,-505.77 998.04,-507.77 998.04,-510.22"/>
<text text-anchor="middle" x="1025.54" y="-493.38" font-family="Arial" font-size="11.00">D4</text>
<text text-anchor="middle" x="1025.54" y="-481.38" font-family="Arial" font-size="11.00">Wyroby</text>
</g>
<!-- p4&#45;&gt;d4 -->
<g id="edge9" class="edge">
<title>p4&#45;&gt;d4</title>
<path fill="none" stroke="#3f3f3f" d="M778.91,-473.17C845.22,-477.76 940.64,-484.37 990.79,-487.84"/>
<polygon fill="#3f3f3f" stroke="#3f3f3f" points="990.7,-490.29 997.86,-488.33 991.04,-485.4 990.7,-490.29"/>
<text text-anchor="middle" x="863.56" y="-485.98" font-family="Arial" font-size="9.00">katalog wyrobów</text>
</g>
<!-- p5&#45;&gt;magazynier -->
<g id="edge23" class="edge">
<title>p5&#45;&gt;magazynier</title>
<path fill="none" stroke="#3f3f3f" d="M1073.01,-323.49C1090.82,-330.36 1111.54,-337.28 1131.03,-341.18 1182.21,-351.42 1242.4,-352.58 1282.12,-351.89"/>
<polygon fill="#3f3f3f" stroke="#3f3f3f" points="1282.34,-354.34 1289.29,-351.74 1282.24,-349.44 1282.34,-354.34"/>
<text text-anchor="middle" x="1187.03" y="-354.98" font-family="Arial" font-size="9.00">lista kompletacji</text>
</g>
<!-- p5&#45;&gt;p1 -->
<g id="edge14" class="edge">
<title>p5&#45;&gt;p1</title>
<path fill="none" stroke="#3f3f3f" d="M971.87,-321.75C955.43,-327.02 937.14,-332.36 920.06,-336.18 756.27,-372.79 560.69,-393.86 452.67,-403.58"/>
<polygon fill="#3f3f3f" stroke="#3f3f3f" points="452.44,-401.14 445.68,-404.2 452.87,-406.02 452.44,-401.14"/>
<text text-anchor="middle" x="705.81" y="-386.98" font-family="Arial" font-size="9.00">potwierdzenie kompletacji</text>
</g>
<!-- d5 -->
<g id="node14" class="node">
<title>d5</title>
<path fill="#e2f0d9" stroke="#548235" stroke-width="1.3" d="M1383.03,-274.22C1383.03,-276.68 1357.71,-278.68 1326.53,-278.68 1295.36,-278.68 1270.03,-276.68 1270.03,-274.22 1270.03,-274.22 1270.03,-234.13 1270.03,-234.13 1270.03,-231.67 1295.36,-229.67 1326.53,-229.67 1357.71,-229.67 1383.03,-231.67 1383.03,-234.13 1383.03,-234.13 1383.03,-274.22 1383.03,-274.22"/>
<path fill="none" stroke="#548235" stroke-width="1.3" d="M1383.03,-274.22C1383.03,-271.77 1357.71,-269.77 1326.53,-269.77 1295.36,-269.77 1270.03,-271.77 1270.03,-274.22"/>
<text text-anchor="middle" x="1326.53" y="-257.38" font-family="Arial" font-size="11.00">D5</text>
<text text-anchor="middle" x="1326.53" y="-245.38" font-family="Arial" font-size="11.00">Stany magazynowe</text>
</g>
<!-- p5&#45;&gt;d5 -->
<g id="edge12" class="edge">
<title>p5&#45;&gt;d5</title>
<path fill="none" stroke="#3f3f3f" d="M1095.89,-291.81C1146.2,-283.57 1213.71,-272.5 1262.5,-264.51"/>
<polygon fill="#3f3f3f" stroke="#3f3f3f" points="1263.05,-266.9 1269.56,-263.35 1262.26,-262.07 1263.05,-266.9"/>
<text text-anchor="middle" x="1187.03" y="-288.98" font-family="Arial" font-size="9.00">rezerwacje i aktualne stany</text>
</g>
<!-- d1&#45;&gt;p1 -->
<g id="edge7" class="edge">
<title>d1&#45;&gt;p1</title>
<path fill="none" stroke="#3f3f3f" d="M667.29,-543.94C648.7,-534.31 625.75,-523 604.56,-514.18 548.25,-490.73 530.13,-495.34 474.56,-470.18 453.27,-460.53 430.69,-447.8 412.04,-436.55"/>
<polygon fill="#3f3f3f" stroke="#3f3f3f" points="413.13,-434.35 405.88,-432.8 410.59,-438.53 413.13,-434.35"/>
<text text-anchor="middle" x="539.56" y="-516.98" font-family="Arial" font-size="9.00">historia i status zamówień</text>
</g>
<!-- d2&#45;&gt;p2 -->
<g id="edge3" class="edge">
<title>d2&#45;&gt;p2</title>
<path fill="none" stroke="#3f3f3f" d="M678.65,-200.21C629.19,-204.06 520.33,-212.54 446.24,-218.3"/>
<polygon fill="#3f3f3f" stroke="#3f3f3f" points="445.97,-215.87 439.18,-218.85 446.35,-220.75 445.97,-215.87"/>
<text text-anchor="middle" x="539.56" y="-218.98" font-family="Arial" font-size="9.00">profil klienta</text>
</g>
<!-- d3&#45;&gt;p3 -->
<g id="edge20" class="edge">
<title>d3&#45;&gt;p3</title>
<path fill="none" stroke="#3f3f3f" d="M998.24,-50.39C949.77,-60 844.95,-80.79 775.14,-94.63"/>
<polygon fill="#3f3f3f" stroke="#3f3f3f" points="774.46,-92.27 768.07,-96.03 775.42,-97.07 774.46,-92.27"/>
<text text-anchor="middle" x="863.56" y="-90.98" font-family="Arial" font-size="9.00">struktura rejonów</text>
</g>
<!-- d4&#45;&gt;p4 -->
<g id="edge10" class="edge">
<title>d4&#45;&gt;p4</title>
<path fill="none" stroke="#3f3f3f" d="M997.85,-481.28C976.95,-474.81 947.01,-466.6 920.06,-463.18 875.52,-457.52 825.35,-458.34 784.86,-460.77"/>
<polygon fill="#3f3f3f" stroke="#3f3f3f" points="784.51,-458.34 777.68,-461.23 784.82,-463.23 784.51,-458.34"/>
<text text-anchor="middle" x="863.56" y="-465.98" font-family="Arial" font-size="9.00">dane wyrobów</text>
</g>
<!-- d5&#45;&gt;p5 -->
<g id="edge13" class="edge">
<title>d5&#45;&gt;p5</title>
<path fill="none" stroke="#3f3f3f" d="M1269.8,-245.1C1230.46,-240.53 1176.82,-238.05 1131.03,-249.18 1108.57,-254.64 1085.54,-265.83 1066.84,-276.61"/>
<polygon fill="#3f3f3f" stroke="#3f3f3f" points="1065.46,-274.58 1060.67,-280.25 1067.95,-278.81 1065.46,-274.58"/>
<text text-anchor="middle" x="1187.03" y="-251.98" font-family="Arial" font-size="9.00">dostępność wyrobów</text>
</g>
</g>
</svg>
