<?xml version="1.0" encoding="UTF-8" standalone="no"?>
<!DOCTYPE svg PUBLIC "-//W3C//DTD SVG 1.1//EN"
 "http://www.w3.org/Graphics/SVG/1.1/DTD/svg11.dtd">
<!-- Generated by graphviz version 2.43.0 (0)
 -->
<!-- Title: G Pages: 1 -->
<svg width="788pt" height="808pt"
 viewBox="0.00 0.00 788.00 807.62" xmlns="http://www.w3.org/2000/svg" xmlns:xlink="http://www.w3.org/1999/xlink">
<g id="graph0" class="graph" transform="scale(1 1) rotate(0) translate(4 803.62)">
<title>G</title>
<polygon fill="white" stroke="transparent" points="-4,4 -4,-803.62 784,-803.62 784,4 -4,4"/>
<text text-anchor="middle" x="390" y="-779.62" font-family="Arial" font-size="20.00">DFD szczegółowy &#45; 3.0 Obsługa rejonów</text>
<!-- kierownik -->
<g id="node1" class="node">
<title>kierownik</title>
<path fill="#fff2cc" stroke="#b57f00" stroke-width="1.3" d="M692,-769.62C692,-769.62 598,-769.62 598,-769.62 592,-769.62 586,-763.62 586,-757.62 586,-757.62 586,-745.62 586,-745.62 586,-739.62 592,-733.62 598,-733.62 598,-733.62 692,-733.62 692,-733.62 698,-733.62 704,-739.62 704,-745.62 704,-745.62 704,-757.62 704,-757.62 704,-763.62 698,-769.62 692,-769.62"/>
<text text-anchor="middle" x="645" y="-748.82" font-family="Arial" font-size="11.00">Kierownik sprzedaży</text>
</g>
<!-- p31 -->
<g id="node3" class="node">
<title>p31</title>
<ellipse fill="#dae8fc" stroke="#2f5597" stroke-width="1.4" cx="528" cy="-634.16" rx="80.72" ry="25.41"/>
<text text-anchor="middle" x="528" y="-637.36" font-family="Arial" font-size="11.00">3.1</text>
<text text-anchor="middle" x="528" y="-625.36" font-family="Arial" font-size="11.00">Definiowanie rejonu</text>
</g>
<!-- kierownik&#45;&gt;p31 -->
<g id="edge1" class="edge">
<title>kierownik&#45;&gt;p31</title>
<path fill="none" stroke="#3f3f3f" d="M615.23,-733.55C603.56,-726.1 590.48,-716.75 580,-706.62 567.37,-694.41 555.64,-678.83 546.53,-665.34"/>
<polygon fill="#3f3f3f" stroke="#3f3f3f" points="548.44,-663.79 542.53,-659.31 544.35,-666.5 548.44,-663.79"/>
<text text-anchor="middle" x="632.5" y="-699.42" font-family="Arial" font-size="9.00">nazwa, zasięg, parametry</text>
<text text-anchor="middle" x="632.5" y="-689.42" font-family="Arial" font-size="9.00">rejonu</text>
</g>
<!-- pracownik -->
<g id="node2" class="node">
<title>pracownik</title>
<path fill="#fff2cc" stroke="#b57f00" stroke-width="1.3" d="M94,-537.96C94,-537.96 12,-537.96 12,-537.96 6,-537.96 0,-531.96 0,-525.96 0,-525.96 0,-513.96 0,-513.96 0,-507.96 6,-501.96 12,-501.96 12,-501.96 94,-501.96 94,-501.96 100,-501.96 106,-507.96 106,-513.96 106,-513.96 106,-525.96 106,-525.96 106,-531.96 100,-537.96 94,-537.96"/>
<text text-anchor="middle" x="53" y="-517.16" font-family="Arial" font-size="11.00">Pracownik obsługi</text>
</g>
<!-- p32 -->
<g id="node4" class="node">
<title>p32</title>
<ellipse fill="#dae8fc" stroke="#2f5597" stroke-width="1.4" cx="312" cy="-395.75" rx="82.05" ry="25.41"/>
<text text-anchor="middle" x="312" y="-398.95" font-family="Arial" font-size="11.00">3.2</text>
<text text-anchor="middle" x="312" y="-386.95" font-family="Arial" font-size="11.00">Przypisanie klientów</text>
</g>
<!-- pracownik&#45;&gt;p32 -->
<g id="edge3" class="edge">
<title>pracownik&#45;&gt;p32</title>
<path fill="none" stroke="#3f3f3f" d="M81.17,-501.8C106.52,-486.71 145.06,-464.65 180,-448.21 203.29,-437.24 229.6,-426.64 252.57,-417.94"/>
<polygon fill="#3f3f3f" stroke="#3f3f3f" points="253.58,-420.18 259.27,-415.42 251.86,-415.59 253.58,-420.18"/>
<text text-anchor="middle" x="225" y="-461.01" font-family="Arial" font-size="9.00">adres klienta / korekta</text>
<text text-anchor="middle" x="225" y="-451.01" font-family="Arial" font-size="9.00">rejonu</text>
</g>
<!-- d3 -->
<g id="node8" class="node">
<title>d3</title>
<path fill="#e2f0d9" stroke="#548235" stroke-width="1.3" d="M418,-540C418,-542.46 405.9,-544.46 391,-544.46 376.1,-544.46 364,-542.46 364,-540 364,-540 364,-499.91 364,-499.91 364,-497.45 376.1,-495.45 391,-495.45 405.9,-495.45 418,-497.45 418,-499.91 418,-499.91 418,-540 418,-540"/>
<path fill="none" stroke="#548235" stroke-width="1.3" d="M418,-540C418,-537.54 405.9,-535.55 391,-535.55 376.1,-535.55 364,-537.54 364,-540"/>
<text text-anchor="middle" x="391" y="-523.16" font-family="Arial" font-size="11.00">D3</text>
<text text-anchor="middle" x="391" y="-511.16" font-family="Arial" font-size="11.00">Rejony</text>
</g>
<!-- p31&#45;&gt;d3 -->
<g id="edge2" class="edge">
<title>p31&#45;&gt;d3</title>
<path fill="none" stroke="#3f3f3f" d="M499.95,-610.18C477.62,-591.9 446.37,-566.31 423.06,-547.22"/>
<polygon fill="#3f3f3f" stroke="#3f3f3f" points="424.59,-545.3 417.62,-542.76 421.48,-549.09 424.59,-545.3"/>
<text text-anchor="middle" x="488" y="-574.51" font-family="Arial" font-size="9.00">dane rejonu</text>
</g>
<!-- d2 -->
<g id="node9" class="node">
<title>d2</title>
<path fill="#e2f0d9" stroke="#548235" stroke-width="1.3" d="M460,-291.59C460,-294.05 447.9,-296.05 433,-296.05 418.1,-296.05 406,-294.05 406,-291.59 406,-291.59 406,-251.5 406,-251.5 406,-249.04 418.1,-247.04 433,-247.04 447.9,-247.04 460,-249.04 460,-251.5 460,-251.5 460,-291.59 460,-291.59"/>
<path fill="none" stroke="#548235" stroke-width="1.3" d="M460,-291.59C460,-289.13 447.9,-287.14 433,-287.14 418.1,-287.14 406,-289.13 406,-291.59"/>
<text text-anchor="middle" x="433" y="-274.74" font-family="Arial" font-size="11.00">D2</text>
<text text-anchor="middle" x="433" y="-262.74" font-family="Arial" font-size="11.00">Klienci</text>
</g>
<!-- p32&#45;&gt;d2 -->
<g id="edge6" class="edge">
<title>p32&#45;&gt;d2</title>
<path fill="none" stroke="#3f3f3f" d="M301.05,-370.21C296.23,-355.39 293.54,-336.82 303,-323.29 323.07,-294.61 344.43,-309.13 377,-296.29 384.22,-293.45 391.91,-290.28 399.21,-287.2"/>
<polygon fill="#3f3f3f" stroke="#3f3f3f" points="400.28,-289.41 405.77,-284.42 398.37,-284.9 400.28,-289.41"/>
<text text-anchor="middle" x="341" y="-336.09" font-family="Arial" font-size="9.00">przypisanie rejonu</text>
<text text-anchor="middle" x="341" y="-326.09" font-family="Arial" font-size="9.00">klienta</text>
</g>
<!-- p33 -->
<g id="node5" class="node">
<title>p33</title>
<ellipse fill="#dae8fc" stroke="#2f5597" stroke-width="1.4" cx="524" cy="-395.75" rx="89.61" ry="25.41"/>
<text text-anchor="middle" x="524" y="-398.95" font-family="Arial" font-size="11.00">3.3</text>
<text text-anchor="middle" x="524" y="-386.95" font-family="Arial" font-size="11.00">Przypisanie magazynu</text>
</g>
<!-- p33&#45;&gt;d3 -->
<g id="edge9" class="edge">
<title>p33&#45;&gt;d3</title>
<path fill="none" stroke="#3f3f3f" d="M490.12,-419.47C478.27,-427.98 465.15,-438.05 454,-448.21 439.85,-461.09 425.54,-476.88 414.15,-490.27"/>
<polygon fill="#3f3f3f" stroke="#3f3f3f" points="412.09,-488.92 409.45,-495.85 415.84,-492.07 412.09,-488.92"/>
<text text-anchor="middle" x="499" y="-456.01" font-family="Arial" font-size="9.00">magazyn obsługujący</text>
</g>
<!-- p34 -->
<g id="node6" class="node">
<title>p34</title>
<ellipse fill="#dae8fc" stroke="#2f5597" stroke-width="1.4" cx="383" cy="-148.85" rx="70.92" ry="33.88"/>
<text text-anchor="middle" x="383" y="-158.05" font-family="Arial" font-size="11.00">3.4</text>
<text text-anchor="middle" x="383" y="-146.05" font-family="Arial" font-size="11.00">Analiza</text>
<text text-anchor="middle" x="383" y="-134.05" font-family="Arial" font-size="11.00">zapotrzebowania</text>
</g>
<!-- p35 -->
<g id="node7" class="node">
<title>p35</title>
<ellipse fill="#dae8fc" stroke="#2f5597" stroke-width="1.4" cx="383" cy="-25.46" rx="94.09" ry="25.41"/>
<text text-anchor="middle" x="383" y="-28.66" font-family="Arial" font-size="11.00">3.5</text>
<text text-anchor="middle" x="383" y="-16.66" font-family="Arial" font-size="11.00">Raportowanie rejonowe</text>
</g>
<!-- p34&#45;&gt;p35 -->
<g id="edge12" class="edge">
<title>p34&#45;&gt;p35</title>
<path fill="none" stroke="#3f3f3f" d="M383,-114.68C383,-97.11 383,-75.64 383,-58.28"/>
<polygon fill="#3f3f3f" stroke="#3f3f3f" points="385.45,-58.11 383,-51.11 380.55,-58.11 385.45,-58.11"/>
<text text-anchor="middle" x="437.5" y="-80.71" font-family="Arial" font-size="9.00">agregaty zapotrzebowania</text>
</g>
<!-- p35&#45;&gt;kierownik -->
<g id="edge14" class="edge">
<title>p35&#45;&gt;kierownik</title>
<path fill="none" stroke="#3f3f3f" d="M462.34,-39.13C560.83,-57.16 716,-94.09 716,-147.85 716,-635.16 716,-635.16 716,-635.16 716,-668.81 709.22,-678.33 691,-706.62 685.85,-714.61 678.96,-722.21 672.09,-728.76"/>
<polygon fill="#3f3f3f" stroke="#3f3f3f" points="670.36,-727.02 666.87,-733.56 673.68,-730.63 670.36,-727.02"/>
<text text-anchor="middle" x="748" y="-393.55" font-family="Arial" font-size="9.00">raport rejonowy</text>
</g>
<!-- d3&#45;&gt;p32 -->
<g id="edge5" class="edge">
<title>d3&#45;&gt;p32</title>
<path fill="none" stroke="#3f3f3f" d="M363.6,-514.41C338.05,-508.56 301.36,-495.66 284,-468.21 275.98,-455.53 280.43,-440.18 287.93,-426.97"/>
<polygon fill="#3f3f3f" stroke="#3f3f3f" points="290.23,-427.91 291.82,-420.67 286.06,-425.34 290.23,-427.91"/>
<text text-anchor="middle" x="312.5" y="-456.01" font-family="Arial" font-size="9.00">aktywny rejon</text>
</g>
<!-- d3&#45;&gt;p33 -->
<g id="edge7" class="edge">
<title>d3&#45;&gt;p33</title>
<path fill="none" stroke="#3f3f3f" d="M382.26,-495.3C378.4,-480.51 376.59,-461.76 386,-448.21 398.57,-430.11 418.31,-418.36 438.98,-410.74"/>
<polygon fill="#3f3f3f" stroke="#3f3f3f" points="439.9,-413.02 445.71,-408.41 438.29,-408.39 439.9,-413.02"/>
<text text-anchor="middle" x="397" y="-456.01" font-family="Arial" font-size="9.00">rejon</text>
</g>
<!-- d3&#45;&gt;p35 -->
<g id="edge13" class="edge">
<title>d3&#45;&gt;p35</title>
<path fill="none" stroke="#3f3f3f" d="M363.78,-516.6C304.5,-509.83 169,-484.74 169,-396.75 169,-396.75 169,-396.75 169,-147.85 169,-86.36 236.67,-55.64 295.9,-40.53"/>
<polygon fill="#3f3f3f" stroke="#3f3f3f" points="296.5,-42.9 302.71,-38.85 295.32,-38.15 296.5,-42.9"/>
<text text-anchor="middle" x="204" y="-269.34" font-family="Arial" font-size="9.00">definicje rejonów</text>
</g>
<!-- d2&#45;&gt;p32 -->
<g id="edge4" class="edge">
<title>d2&#45;&gt;p32</title>
<path fill="none" stroke="#3f3f3f" d="M421.55,-296.27C413.73,-310.91 402.38,-329.47 389,-343.29 379.75,-352.85 368.45,-361.6 357.38,-369.07"/>
<polygon fill="#3f3f3f" stroke="#3f3f3f" points="355.77,-367.19 351.27,-373.08 358.46,-371.29 355.77,-367.19"/>
<text text-anchor="middle" x="417.5" y="-331.09" font-family="Arial" font-size="9.00">klienci</text>
</g>
<!-- d2&#45;&gt;p34 -->
<g id="edge11" class="edge">
<title>d2&#45;&gt;p34</title>
<path fill="none" stroke="#3f3f3f" d="M423.24,-246.99C416.43,-230.54 407.17,-208.2 399.26,-189.09"/>
<polygon fill="#3f3f3f" stroke="#3f3f3f" points="401.46,-188.01 396.52,-182.48 396.93,-189.89 401.46,-188.01"/>
<text text-anchor="middle" x="441" y="-212.59" font-family="Arial" font-size="9.00">klienci z rejonu</text>
</g>
<!-- d1 -->
<g id="node10" class="node">
<title>d1</title>
<path fill="#e2f0d9" stroke="#548235" stroke-width="1.3" d="M356.5,-291.59C356.5,-294.05 339.24,-296.05 318,-296.05 296.76,-296.05 279.5,-294.05 279.5,-291.59 279.5,-291.59 279.5,-251.5 279.5,-251.5 279.5,-249.04 296.76,-247.04 318,-247.04 339.24,-247.04 356.5,-249.04 356.5,-251.5 356.5,-251.5 356.5,-291.59 356.5,-291.59"/>
<path fill="none" stroke="#548235" stroke-width="1.3" d="M356.5,-291.59C356.5,-289.13 339.24,-287.14 318,-287.14 296.76,-287.14 279.5,-289.13 279.5,-291.59"/>
<text text-anchor="middle" x="318" y="-274.74" font-family="Arial" font-size="11.00">D1</text>
<text text-anchor="middle" x="318" y="-262.74" font-family="Arial" font-size="11.00">Zamówienia</text>
</g>
<!-- d1&#45;&gt;p34 -->
<g id="edge10" class="edge">
<title>d1&#45;&gt;p34</title>
<path fill="none" stroke="#3f3f3f" d="M310.71,-246.8C308.45,-235.16 307.74,-221.23 313,-209.79 318.03,-198.86 326.15,-189.17 335.11,-180.95"/>
<polygon fill="#3f3f3f" stroke="#3f3f3f" points="336.8,-182.73 340.47,-176.28 333.58,-179.03 336.8,-182.73"/>
<text text-anchor="middle" x="355.5" y="-212.59" font-family="Arial" font-size="9.00">zamówienia z rejonu</text>
</g>
<!-- d5 -->
<g id="node11" class="node">
<title>d5</title>
<path fill="#e2f0d9" stroke="#548235" stroke-width="1.3" d="M649.5,-540C649.5,-542.46 624.18,-544.46 593,-544.46 561.82,-544.46 536.5,-542.46 536.5,-540 536.5,-540 536.5,-499.91 536.5,-499.91 536.5,-497.45 561.82,-495.45 593,-495.45 624.18,-495.45 649.5,-497.45 649.5,-499.91 649.5,-499.91 649.5,-540 649.5,-540"/>
<path fill="none" stroke="#548235" stroke-width="1.3" d="M649.5,-540C649.5,-537.54 624.18,-535.55 593,-535.55 561.82,-535.55 536.5,-537.54 536.5,-540"/>
<text text-anchor="middle" x="593" y="-523.16" font-family="Arial" font-size="11.00">D5</text>
<text text-anchor="middle" x="593" y="-511.16" font-family="Arial" font-size="11.00">Stany magazynowe</text>
</g>
<!-- d5&#45;&gt;p33 -->
<g id="edge8" class="edge">
<title>d5&#45;&gt;p33</title>
<path fill="none" stroke="#3f3f3f" d="M579.7,-495.39C568.77,-476.03 553.2,-448.46 541.3,-427.39"/>
<polygon fill="#3f3f3f" stroke="#3f3f3f" points="543.31,-425.97 537.74,-421.08 539.04,-428.38 543.31,-425.97"/>
<text text-anchor="middle" x="610.5" y="-456.01" font-family="Arial" font-size="9.00">magazyny i dostępność</text>
</g>
</g>
</svg>
