<?xml version="1.0" encoding="UTF-8" standalone="no"?>
<!DOCTYPE svg PUBLIC "-//W3C//DTD SVG 1.1//EN"
 "http://www.w3.org/Graphics/SVG/1.1/DTD/svg11.dtd">
<!-- Generated by graphviz version 2.43.0 (0)
 -->
<!-- Title: G Pages: 1 -->
<svg width="784pt" height="1003pt"
 viewBox="0.00 0.00 783.50 1002.53" xmlns="http://www.w3.org/2000/svg" xmlns:xlink="http://www.w3.org/1999/xlink">
<g id="graph0" class="graph" transform="scale(1 1) rotate(0) translate(4 998.53)">
<title>G</title>
<polygon fill="white" stroke="transparent" points="-4,4 -4,-998.53 779.5,-998.53 779.5,4 -4,4"/>
<text text-anchor="middle" x="387.75" y="-974.53" font-family="Arial" font-size="20.00">DFD szczegółowy &#45; 5.0 Obsługa magazynu</text>
<!-- magazynier -->
<g id="node1" class="node">
<title>magazynier</title>
<path fill="#fff2cc" stroke="#b57f00" stroke-width="1.3" d="M634.5,-964.53C634.5,-964.53 584.5,-964.53 584.5,-964.53 578.5,-964.53 572.5,-958.53 572.5,-952.53 572.5,-952.53 572.5,-940.53 572.5,-940.53 572.5,-934.53 578.5,-928.53 584.5,-928.53 584.5,-928.53 634.5,-928.53 634.5,-928.53 640.5,-928.53 646.5,-934.53 646.5,-940.53 646.5,-940.53 646.5,-952.53 646.5,-952.53 646.5,-958.53 640.5,-964.53 634.5,-964.53"/>
<text text-anchor="middle" x="609.5" y="-943.73" font-family="Arial" font-size="11.00">Magazynier</text>
</g>
<!-- p51 -->
<g id="node4" class="node">
<title>p51</title>
<ellipse fill="#dae8fc" stroke="#2f5597" stroke-width="1.4" cx="413.5" cy="-839.07" rx="77.15" ry="25.41"/>
<text text-anchor="middle" x="413.5" y="-842.27" font-family="Arial" font-size="11.00">5.1</text>
<text text-anchor="middle" x="413.5" y="-830.27" font-family="Arial" font-size="11.00">Przyjęcie wyrobów</text>
</g>
<!-- magazynier&#45;&gt;p51 -->
<g id="edge2" class="edge">
<title>magazynier&#45;&gt;p51</title>
<path fill="none" stroke="#3f3f3f" d="M577.57,-928.35C545.27,-910.97 495.05,-883.95 458.67,-864.38"/>
<polygon fill="#3f3f3f" stroke="#3f3f3f" points="459.83,-862.22 452.5,-861.06 457.51,-866.53 459.83,-862.22"/>
<text text-anchor="middle" x="571" y="-894.33" font-family="Arial" font-size="9.00">potwierdzenie przyjęcia</text>
</g>
<!-- p54 -->
<g id="node7" class="node">
<title>p54</title>
<ellipse fill="#dae8fc" stroke="#2f5597" stroke-width="1.4" cx="461.5" cy="-138.96" rx="89.19" ry="25.41"/>
<text text-anchor="middle" x="461.5" y="-142.16" font-family="Arial" font-size="11.00">5.4</text>
<text text-anchor="middle" x="461.5" y="-130.16" font-family="Arial" font-size="11.00">Kompletacja i wydanie</text>
</g>
<!-- magazynier&#45;&gt;p54 -->
<g id="edge12" class="edge">
<title>magazynier&#45;&gt;p54</title>
<path fill="none" stroke="#3f3f3f" d="M630.42,-928.48C651.36,-909.37 680.5,-876.27 680.5,-840.07 680.5,-840.07 680.5,-840.07 680.5,-261.35 680.5,-197.62 608.68,-167.07 547.3,-152.6"/>
<polygon fill="#3f3f3f" stroke="#3f3f3f" points="547.62,-150.16 540.25,-151 546.54,-154.94 547.62,-150.16"/>
<text text-anchor="middle" x="728" y="-546.01" font-family="Arial" font-size="9.00">potwierdzenie wydania</text>
</g>
<!-- dostawca -->
<g id="node2" class="node">
<title>dostawca</title>
<path fill="#fff2cc" stroke="#b57f00" stroke-width="1.3" d="M55,-396.29C55,-396.29 12,-396.29 12,-396.29 6,-396.29 0,-390.29 0,-384.29 0,-384.29 0,-372.29 0,-372.29 0,-366.29 6,-360.29 12,-360.29 12,-360.29 55,-360.29 55,-360.29 61,-360.29 67,-366.29 67,-372.29 67,-372.29 67,-384.29 67,-384.29 67,-390.29 61,-396.29 55,-396.29"/>
<text text-anchor="middle" x="33.5" y="-375.49" font-family="Arial" font-size="11.00">Dostawca</text>
</g>
<!-- dostawca&#45;&gt;p51 -->
<g id="edge1" class="edge">
<title>dostawca&#45;&gt;p51</title>
<path fill="none" stroke="#3f3f3f" d="M24.66,-396.32C14.88,-416.76 0.5,-452.33 0.5,-484.75 0.5,-725.16 0.5,-725.16 0.5,-725.16 0.5,-793.03 210.65,-821.53 331.14,-832.29"/>
<polygon fill="#3f3f3f" stroke="#3f3f3f" points="331.04,-834.74 338.23,-832.91 331.47,-829.86 331.04,-834.74"/>
<text text-anchor="middle" x="37.5" y="-607.76" font-family="Arial" font-size="9.00">dostawa wyrobów</text>
</g>
<!-- pracownik -->
<g id="node3" class="node">
<title>pracownik</title>
<path fill="#fff2cc" stroke="#b57f00" stroke-width="1.3" d="M260.5,-396.29C260.5,-396.29 178.5,-396.29 178.5,-396.29 172.5,-396.29 166.5,-390.29 166.5,-384.29 166.5,-384.29 166.5,-372.29 166.5,-372.29 166.5,-366.29 172.5,-360.29 178.5,-360.29 178.5,-360.29 260.5,-360.29 260.5,-360.29 266.5,-360.29 272.5,-366.29 272.5,-372.29 272.5,-372.29 272.5,-384.29 272.5,-384.29 272.5,-390.29 266.5,-396.29 260.5,-396.29"/>
<text text-anchor="middle" x="219.5" y="-375.49" font-family="Arial" font-size="11.00">Pracownik obsługi</text>
</g>
<!-- p53 -->
<g id="node6" class="node">
<title>p53</title>
<ellipse fill="#dae8fc" stroke="#2f5597" stroke-width="1.4" cx="317.5" cy="-262.35" rx="68.68" ry="33.88"/>
<text text-anchor="middle" x="317.5" y="-271.55" font-family="Arial" font-size="11.00">5.3</text>
<text text-anchor="middle" x="317.5" y="-259.55" font-family="Arial" font-size="11.00">Rezerwacja pod</text>
<text text-anchor="middle" x="317.5" y="-247.55" font-family="Arial" font-size="11.00">zamówienie</text>
</g>
<!-- pracownik&#45;&gt;p53 -->
<g id="edge7" class="edge">
<title>pracownik&#45;&gt;p53</title>
<path fill="none" stroke="#3f3f3f" d="M217.39,-360.04C216.86,-348.8 217.86,-334.24 224.5,-323.29 232.97,-309.34 246.06,-298.04 259.78,-289.18"/>
<polygon fill="#3f3f3f" stroke="#3f3f3f" points="261.44,-291.03 266.11,-285.27 258.86,-286.86 261.44,-291.03"/>
<text text-anchor="middle" x="270" y="-326.09" font-family="Arial" font-size="9.00">dyspozycja rezerwacji</text>
</g>
<!-- p52 -->
<g id="node5" class="node">
<title>p52</title>
<ellipse fill="#dae8fc" stroke="#2f5597" stroke-width="1.4" cx="498.5" cy="-724.16" rx="79.81" ry="25.41"/>
<text text-anchor="middle" x="498.5" y="-727.36" font-family="Arial" font-size="11.00">5.2</text>
<text text-anchor="middle" x="498.5" y="-715.36" font-family="Arial" font-size="11.00">Aktualizacja stanów</text>
</g>
<!-- p51&#45;&gt;p52 -->
<g id="edge4" class="edge">
<title>p51&#45;&gt;p52</title>
<path fill="none" stroke="#3f3f3f" d="M431.53,-814.13C444.49,-796.91 462.05,-773.58 475.94,-755.13"/>
<polygon fill="#3f3f3f" stroke="#3f3f3f" points="478.25,-756.14 480.5,-749.07 474.33,-753.19 478.25,-756.14"/>
<text text-anchor="middle" x="485.5" y="-779.42" font-family="Arial" font-size="9.00">przyjęta ilość</text>
</g>
<!-- d4 -->
<g id="node9" class="node">
<title>d4</title>
<path fill="#e2f0d9" stroke="#548235" stroke-width="1.3" d="M379,-744.21C379,-746.67 366.67,-748.66 351.5,-748.66 336.33,-748.66 324,-746.67 324,-744.21 324,-744.21 324,-704.11 324,-704.11 324,-701.66 336.33,-699.66 351.5,-699.66 366.67,-699.66 379,-701.66 379,-704.11 379,-704.11 379,-744.21 379,-744.21"/>
<path fill="none" stroke="#548235" stroke-width="1.3" d="M379,-744.21C379,-741.75 366.67,-739.75 351.5,-739.75 336.33,-739.75 324,-741.75 324,-744.21"/>
<text text-anchor="middle" x="351.5" y="-727.36" font-family="Arial" font-size="11.00">D4</text>
<text text-anchor="middle" x="351.5" y="-715.36" font-family="Arial" font-size="11.00">Wyroby</text>
</g>
<!-- p51&#45;&gt;d4 -->
<g id="edge3" class="edge">
<title>p51&#45;&gt;d4</title>
<path fill="none" stroke="#3f3f3f" d="M390.58,-814.66C383.37,-806.33 375.89,-796.54 370.5,-786.62 365.3,-777.05 361.3,-765.86 358.35,-755.66"/>
<polygon fill="#3f3f3f" stroke="#3f3f3f" points="360.68,-754.9 356.47,-748.8 355.96,-756.2 360.68,-754.9"/>
<text text-anchor="middle" x="397.5" y="-779.42" font-family="Arial" font-size="9.00">dane wyrobu</text>
</g>
<!-- d5 -->
<g id="node10" class="node">
<title>d5</title>
<path fill="#e2f0d9" stroke="#548235" stroke-width="1.3" d="M476,-630C476,-632.46 450.68,-634.46 419.5,-634.46 388.32,-634.46 363,-632.46 363,-630 363,-630 363,-589.91 363,-589.91 363,-587.45 388.32,-585.45 419.5,-585.45 450.68,-585.45 476,-587.45 476,-589.91 476,-589.91 476,-630 476,-630"/>
<path fill="none" stroke="#548235" stroke-width="1.3" d="M476,-630C476,-627.54 450.68,-625.55 419.5,-625.55 388.32,-625.55 363,-627.54 363,-630"/>
<text text-anchor="middle" x="419.5" y="-613.16" font-family="Arial" font-size="11.00">D5</text>
<text text-anchor="middle" x="419.5" y="-601.16" font-family="Arial" font-size="11.00">Stany magazynowe</text>
</g>
<!-- p52&#45;&gt;d5 -->
<g id="edge5" class="edge">
<title>p52&#45;&gt;d5</title>
<path fill="none" stroke="#3f3f3f" d="M495.78,-698.67C493.58,-686.78 489.62,-672.73 482.5,-661.71 476.99,-653.18 469.56,-645.41 461.75,-638.67"/>
<polygon fill="#3f3f3f" stroke="#3f3f3f" points="463.25,-636.73 456.29,-634.17 460.13,-640.51 463.25,-636.73"/>
<text text-anchor="middle" x="514" y="-664.51" font-family="Arial" font-size="9.00">aktualny stan</text>
</g>
<!-- p53&#45;&gt;p54 -->
<g id="edge11" class="edge">
<title>p53&#45;&gt;p54</title>
<path fill="none" stroke="#3f3f3f" d="M327.52,-228.5C332.73,-215.67 340.21,-201.63 350.5,-191.41 363.34,-178.66 379.92,-168.7 396.34,-161.08"/>
<polygon fill="#3f3f3f" stroke="#3f3f3f" points="397.47,-163.26 402.86,-158.17 395.47,-158.78 397.47,-163.26"/>
<text text-anchor="middle" x="383.5" y="-194.21" font-family="Arial" font-size="9.00">lista kompletacji</text>
</g>
<!-- p53&#45;&gt;d5 -->
<g id="edge10" class="edge">
<title>p53&#45;&gt;d5</title>
<path fill="none" stroke="#3f3f3f" d="M383.85,-271.44C438.04,-281.93 511.38,-305.87 547.5,-360.29 599.01,-437.91 533.5,-483.03 478.5,-558.21 472.54,-566.36 465.03,-574.07 457.38,-580.92"/>
<polygon fill="#3f3f3f" stroke="#3f3f3f" points="455.77,-579.07 452.08,-585.51 458.97,-582.78 455.77,-579.07"/>
<text text-anchor="middle" x="588.5" y="-426.09" font-family="Arial" font-size="9.00">rezerwacja</text>
</g>
<!-- p54&#45;&gt;d5 -->
<g id="edge13" class="edge">
<title>p54&#45;&gt;d5</title>
<path fill="none" stroke="#3f3f3f" d="M456.99,-164.51C452.9,-188.96 447.5,-227.62 447.5,-261.35 447.5,-486.75 447.5,-486.75 447.5,-486.75 447.5,-518.64 438.33,-554.07 430.48,-578.53"/>
<polygon fill="#3f3f3f" stroke="#3f3f3f" points="428.07,-578.02 428.21,-585.44 432.72,-579.55 428.07,-578.02"/>
<text text-anchor="middle" x="492.5" y="-376.09" font-family="Arial" font-size="9.00">rozchód magazynowy</text>
</g>
<!-- d1 -->
<g id="node11" class="node">
<title>d1</title>
<path fill="#e2f0d9" stroke="#548235" stroke-width="1.3" d="M320,-44.8C320,-47.26 302.74,-49.25 281.5,-49.25 260.26,-49.25 243,-47.26 243,-44.8 243,-44.8 243,-4.7 243,-4.7 243,-2.24 260.26,-0.25 281.5,-0.25 302.74,-0.25 320,-2.24 320,-4.7 320,-4.7 320,-44.8 320,-44.8"/>
<path fill="none" stroke="#548235" stroke-width="1.3" d="M320,-44.8C320,-42.34 302.74,-40.34 281.5,-40.34 260.26,-40.34 243,-42.34 243,-44.8"/>
<text text-anchor="middle" x="281.5" y="-27.95" font-family="Arial" font-size="11.00">D1</text>
<text text-anchor="middle" x="281.5" y="-15.95" font-family="Arial" font-size="11.00">Zamówienia</text>
</g>
<!-- p54&#45;&gt;d1 -->
<g id="edge14" class="edge">
<title>p54&#45;&gt;d1</title>
<path fill="none" stroke="#3f3f3f" d="M425.51,-115.52C395.88,-97.05 353.87,-70.86 322.86,-51.54"/>
<polygon fill="#3f3f3f" stroke="#3f3f3f" points="324.05,-49.39 316.82,-47.77 321.46,-53.55 324.05,-49.39"/>
<text text-anchor="middle" x="414" y="-79.3" font-family="Arial" font-size="9.00">status kompletacji</text>
</g>
<!-- p55 -->
<g id="node8" class="node">
<title>p55</title>
<ellipse fill="#dae8fc" stroke="#2f5597" stroke-width="1.4" cx="197.5" cy="-485.75" rx="89.61" ry="25.41"/>
<text text-anchor="middle" x="197.5" y="-488.95" font-family="Arial" font-size="11.00">5.5</text>
<text text-anchor="middle" x="197.5" y="-476.95" font-family="Arial" font-size="11.00">Uzupełnianie zapasów</text>
</g>
<!-- p55&#45;&gt;dostawca -->
<g id="edge16" class="edge">
<title>p55&#45;&gt;dostawca</title>
<path fill="none" stroke="#3f3f3f" d="M148.59,-464.33C130.35,-455.81 109.86,-445.13 92.5,-433.29 79.09,-424.15 65.63,-412.1 54.96,-401.7"/>
<polygon fill="#3f3f3f" stroke="#3f3f3f" points="56.65,-399.94 49.95,-396.75 53.2,-403.42 56.65,-399.94"/>
<text text-anchor="middle" x="145.5" y="-426.09" font-family="Arial" font-size="9.00">zamówienie uzupełnienia</text>
</g>
<!-- p55&#45;&gt;pracownik -->
<g id="edge17" class="edge">
<title>p55&#45;&gt;pracownik</title>
<path fill="none" stroke="#3f3f3f" d="M202.6,-460.29C206.18,-443.15 210.94,-420.34 214.49,-403.3"/>
<polygon fill="#3f3f3f" stroke="#3f3f3f" points="216.9,-403.74 215.93,-396.38 212.11,-402.74 216.9,-403.74"/>
<text text-anchor="middle" x="253.5" y="-426.09" font-family="Arial" font-size="9.00">informacja o brakach</text>
</g>
<!-- d5&#45;&gt;p52 -->
<g id="edge6" class="edge">
<title>d5&#45;&gt;p52</title>
<path fill="none" stroke="#3f3f3f" d="M400.74,-634.71C393.94,-646.35 389.46,-660.28 396.5,-671.71 405.14,-685.75 418.93,-696.09 433.6,-703.67"/>
<polygon fill="#3f3f3f" stroke="#3f3f3f" points="432.57,-705.89 439.93,-706.74 434.71,-701.48 432.57,-705.89"/>
<text text-anchor="middle" x="434.5" y="-664.51" font-family="Arial" font-size="9.00">stan przed zmianą</text>
</g>
<!-- d5&#45;&gt;p53 -->
<g id="edge9" class="edge">
<title>d5&#45;&gt;p53</title>
<path fill="none" stroke="#3f3f3f" d="M412.49,-585.2C395.22,-526.7 350.5,-375.18 329.16,-302.87"/>
<polygon fill="#3f3f3f" stroke="#3f3f3f" points="331.5,-302.15 327.17,-296.13 326.81,-303.54 331.5,-302.15"/>
<text text-anchor="middle" x="391.5" y="-426.09" font-family="Arial" font-size="9.00">dostępność</text>
</g>
<!-- d5&#45;&gt;p55 -->
<g id="edge15" class="edge">
<title>d5&#45;&gt;p55</title>
<path fill="none" stroke="#3f3f3f" d="M362.77,-605.77C322.47,-600.82 269.21,-588.51 232.5,-558.21 220.05,-547.93 211.67,-532.14 206.24,-518.02"/>
<polygon fill="#3f3f3f" stroke="#3f3f3f" points="208.49,-517.01 203.81,-511.25 203.87,-518.66 208.49,-517.01"/>
<text text-anchor="middle" x="275" y="-551.01" font-family="Arial" font-size="9.00">poziomy minimalne i</text>
<text text-anchor="middle" x="275" y="-541.01" font-family="Arial" font-size="9.00">braki</text>
</g>
<!-- d1&#45;&gt;p53 -->
<g id="edge8" class="edge">
<title>d1&#45;&gt;p53</title>
<path fill="none" stroke="#3f3f3f" d="M274.61,-49.63C267.62,-77.53 259.08,-124.9 268.5,-164.41 273.41,-185 283.43,-206.16 293.14,-223.44"/>
<polygon fill="#3f3f3f" stroke="#3f3f3f" points="291.08,-224.78 296.69,-229.63 295.33,-222.34 291.08,-224.78"/>
<text text-anchor="middle" x="310.5" y="-136.76" font-family="Arial" font-size="9.00">pozycje zamówienia</text>
</g>
</g>
</svg>
