<?xml version="1.0" encoding="UTF-8" standalone="no"?>
<!DOCTYPE svg PUBLIC "-//W3C//DTD SVG 1.1//EN"
 "http://www.w3.org/Graphics/SVG/1.1/DTD/svg11.dtd">
<!-- Generated by graphviz version 2.43.0 (0)
 -->
<!-- Title: G Pages: 1 -->
<svg width="3464pt" height="256pt"
 viewBox="0.00 0.00 3463.50 256.00" xmlns="http://www.w3.org/2000/svg" xmlns:xlink="http://www.w3.org/1999/xlink">
<g id="graph0" class="graph" transform="scale(1 1) rotate(0) translate(4 252)">
<title>G</title>
<polygon fill="white" stroke="transparent" points="-4,4 -4,-252 3459.5,-252 3459.5,4 -4,4"/>
<text text-anchor="middle" x="1727.75" y="-228" font-family="Arial" font-size="20.00">FHD &#45; Dekompozycja funkcji: Klient, Rejon, Magazyn</text>
<!-- root -->
<g id="node1" class="node">
<title>root</title>
<path fill="#f8fbff" stroke="#3b6ea8" stroke-width="1.4" d="M1614,-218C1614,-218 1465,-218 1465,-218 1459,-218 1453,-212 1453,-206 1453,-206 1453,-194 1453,-194 1453,-188 1459,-182 1465,-182 1465,-182 1614,-182 1614,-182 1620,-182 1626,-188 1626,-194 1626,-194 1626,-206 1626,-206 1626,-212 1620,-218 1614,-218"/>
<text text-anchor="middle" x="1539.5" y="-196.9" font-family="Arial" font-size="12.00">0. System obsługi zamówień</text>
</g>
<!-- f1 -->
<g id="node2" class="node">
<title>f1</title>
<path fill="#f8fbff" stroke="#3b6ea8" stroke-width="1.4" d="M617.5,-128C617.5,-128 505.5,-128 505.5,-128 499.5,-128 493.5,-122 493.5,-116 493.5,-116 493.5,-102 493.5,-102 493.5,-96 499.5,-90 505.5,-90 505.5,-90 617.5,-90 617.5,-90 623.5,-90 629.5,-96 629.5,-102 629.5,-102 629.5,-116 629.5,-116 629.5,-122 623.5,-128 617.5,-128"/>
<text text-anchor="middle" x="561.5" y="-112.4" font-family="Arial" font-size="12.00">1. Obsługa zamówień</text>
<text text-anchor="middle" x="561.5" y="-99.4" font-family="Arial" font-size="12.00">(...)</text>
</g>
<!-- root&#45;&gt;f1 -->
<g id="edge1" class="edge">
<title>root&#45;&gt;f1</title>
<path fill="none" stroke="#3b6ea8" stroke-width="1.2" d="M1452.71,-200C1213.36,-200 561.5,-200 561.5,-200 561.5,-200 561.5,-155.01 561.5,-128.3"/>
</g>
<!-- f2 -->
<g id="node3" class="node">
<title>f2</title>
<path fill="#f8fbff" stroke="#3b6ea8" stroke-width="1.4" d="M783.5,-127C783.5,-127 681.5,-127 681.5,-127 675.5,-127 669.5,-121 669.5,-115 669.5,-115 669.5,-103 669.5,-103 669.5,-97 675.5,-91 681.5,-91 681.5,-91 783.5,-91 783.5,-91 789.5,-91 795.5,-97 795.5,-103 795.5,-103 795.5,-115 795.5,-115 795.5,-121 789.5,-127 783.5,-127"/>
<text text-anchor="middle" x="732.5" y="-105.9" font-family="Arial" font-size="12.00">2. Obsługa klientów</text>
</g>
<!-- root&#45;&gt;f2 -->
<g id="edge2" class="edge">
<title>root&#45;&gt;f2</title>
<path fill="none" stroke="#3b6ea8" stroke-width="1.2" d="M1465.25,-181.8C1465.25,-157.64 1465.25,-118 1465.25,-118 1465.25,-118 973.35,-118 795.61,-118"/>
</g>
<!-- f3 -->
<g id="node4" class="node">
<title>f3</title>
<path fill="#f8fbff" stroke="#3b6ea8" stroke-width="1.4" d="M1589.5,-127C1589.5,-127 1489.5,-127 1489.5,-127 1483.5,-127 1477.5,-121 1477.5,-115 1477.5,-115 1477.5,-103 1477.5,-103 1477.5,-97 1483.5,-91 1489.5,-91 1489.5,-91 1589.5,-91 1589.5,-91 1595.5,-91 1601.5,-97 1601.5,-103 1601.5,-103 1601.5,-115 1601.5,-115 1601.5,-121 1595.5,-127 1589.5,-127"/>
<text text-anchor="middle" x="1539.5" y="-105.9" font-family="Arial" font-size="12.00">3. Obsługa rejonów</text>
</g>
<!-- root&#45;&gt;f3 -->
<g id="edge3" class="edge">
<title>root&#45;&gt;f3</title>
<path fill="none" stroke="#3b6ea8" stroke-width="1.2" d="M1539.5,-181.58C1539.5,-165.69 1539.5,-142.87 1539.5,-127.08"/>
</g>
<!-- f4 -->
<g id="node5" class="node">
<title>f4</title>
<path fill="#f8fbff" stroke="#3b6ea8" stroke-width="1.4" d="M1759,-128C1759,-128 1654,-128 1654,-128 1648,-128 1642,-122 1642,-116 1642,-116 1642,-102 1642,-102 1642,-96 1648,-90 1654,-90 1654,-90 1759,-90 1759,-90 1765,-90 1771,-96 1771,-102 1771,-102 1771,-116 1771,-116 1771,-122 1765,-128 1759,-128"/>
<text text-anchor="middle" x="1706.5" y="-112.4" font-family="Arial" font-size="12.00">4. Obsługa wyrobów</text>
<text text-anchor="middle" x="1706.5" y="-99.4" font-family="Arial" font-size="12.00">(...)</text>
</g>
<!-- root&#45;&gt;f4 -->
<g id="edge4" class="edge">
<title>root&#45;&gt;f4</title>
<path fill="none" stroke="#3b6ea8" stroke-width="1.2" d="M1613.75,-181.58C1613.75,-154.99 1613.75,-109 1613.75,-109 1613.75,-109 1626.12,-109 1641.83,-109"/>
</g>
<!-- f5 -->
<g id="node6" class="node">
<title>f5</title>
<path fill="#f8fbff" stroke="#3b6ea8" stroke-width="1.4" d="M2781,-127C2781,-127 2668,-127 2668,-127 2662,-127 2656,-121 2656,-115 2656,-115 2656,-103 2656,-103 2656,-97 2662,-91 2668,-91 2668,-91 2781,-91 2781,-91 2787,-91 2793,-97 2793,-103 2793,-103 2793,-115 2793,-115 2793,-121 2787,-127 2781,-127"/>
<text text-anchor="middle" x="2724.5" y="-105.9" font-family="Arial" font-size="12.00">5. Obsługa magazynu</text>
</g>
<!-- root&#45;&gt;f5 -->
<g id="edge5" class="edge">
<title>root&#45;&gt;f5</title>
<path fill="none" stroke="#3b6ea8" stroke-width="1.2" d="M1626.16,-200C1899.33,-200 2724.5,-200 2724.5,-200 2724.5,-200 2724.5,-154.01 2724.5,-127.42"/>
</g>
<!-- f21 -->
<g id="node7" class="node">
<title>f21</title>
<path fill="#f8fbff" stroke="#3b6ea8" stroke-width="1.4" d="M127,-36C127,-36 12,-36 12,-36 6,-36 0,-30 0,-24 0,-24 0,-12 0,-12 0,-6 6,0 12,0 12,0 127,0 127,0 133,0 139,-6 139,-12 139,-12 139,-24 139,-24 139,-30 133,-36 127,-36"/>
<text text-anchor="middle" x="69.5" y="-14.9" font-family="Arial" font-size="12.00">2.1 Rejestracja klienta</text>
</g>
<!-- f2&#45;&gt;f21 -->
<g id="edge6" class="edge">
<title>f2&#45;&gt;f21</title>
<path fill="none" stroke="#3b6ea8" stroke-width="1.2" d="M701,-90.86C701,-84.54 701,-79 701,-79 701,-79 69.5,-79 69.5,-79 69.5,-79 69.5,-54.27 69.5,-36.3"/>
</g>
<!-- f22 -->
<g id="node8" class="node">
<title>f22</title>
<path fill="#f8fbff" stroke="#3b6ea8" stroke-width="1.4" d="M353.5,-36C353.5,-36 191.5,-36 191.5,-36 185.5,-36 179.5,-30 179.5,-24 179.5,-24 179.5,-12 179.5,-12 179.5,-6 185.5,0 191.5,0 191.5,0 353.5,0 353.5,0 359.5,0 365.5,-6 365.5,-12 365.5,-12 365.5,-24 365.5,-24 365.5,-30 359.5,-36 353.5,-36"/>
<text text-anchor="middle" x="272.5" y="-14.9" font-family="Arial" font-size="12.00">2.2 Aktualizacja danych klienta</text>
</g>
<!-- f2&#45;&gt;f22 -->
<g id="edge7" class="edge">
<title>f2&#45;&gt;f22</title>
<path fill="none" stroke="#3b6ea8" stroke-width="1.2" d="M732.5,-90.81C732.5,-75.82 732.5,-57 732.5,-57 732.5,-57 272.5,-57 272.5,-57 272.5,-57 272.5,-46.31 272.5,-36.13"/>
</g>
<!-- f23 -->
<g id="node9" class="node">
<title>f23</title>
<path fill="#f8fbff" stroke="#3b6ea8" stroke-width="1.4" d="M589,-36C589,-36 418,-36 418,-36 412,-36 406,-30 406,-24 406,-24 406,-12 406,-12 406,-6 412,0 418,0 418,0 589,0 589,0 595,0 601,-6 601,-12 601,-12 601,-24 601,-24 601,-30 595,-36 589,-36"/>
<text text-anchor="middle" x="503.5" y="-14.9" font-family="Arial" font-size="12.00">2.3 Przypisanie klienta do rejonu</text>
</g>
<!-- f2&#45;&gt;f23 -->
<g id="edge8" class="edge">
<title>f2&#45;&gt;f23</title>
<path fill="none" stroke="#3b6ea8" stroke-width="1.2" d="M669.43,-109C650.9,-109 635.5,-109 635.5,-109 635.5,-109 635.5,-18 635.5,-18 635.5,-18 620.78,-18 601.16,-18"/>
</g>
<!-- f24 -->
<g id="node10" class="node">
<title>f24</title>
<path fill="#f8fbff" stroke="#3b6ea8" stroke-width="1.4" d="M811.5,-36C811.5,-36 653.5,-36 653.5,-36 647.5,-36 641.5,-30 641.5,-24 641.5,-24 641.5,-12 641.5,-12 641.5,-6 647.5,0 653.5,0 653.5,0 811.5,0 811.5,0 817.5,0 823.5,-6 823.5,-12 823.5,-12 823.5,-24 823.5,-24 823.5,-30 817.5,-36 811.5,-36"/>
<text text-anchor="middle" x="732.5" y="-14.9" font-family="Arial" font-size="12.00">2.4 Weryfikacja statusu klienta</text>
</g>
<!-- f2&#45;&gt;f24 -->
<g id="edge9" class="edge">
<title>f2&#45;&gt;f24</title>
<path fill="none" stroke="#3b6ea8" stroke-width="1.2" d="M764,-90.58C764,-74.69 764,-51.87 764,-36.08"/>
</g>
<!-- f25 -->
<g id="node11" class="node">
<title>f25</title>
<path fill="#f8fbff" stroke="#3b6ea8" stroke-width="1.4" d="M1065.5,-36C1065.5,-36 875.5,-36 875.5,-36 869.5,-36 863.5,-30 863.5,-24 863.5,-24 863.5,-12 863.5,-12 863.5,-6 869.5,0 875.5,0 875.5,0 1065.5,0 1065.5,0 1071.5,0 1077.5,-6 1077.5,-12 1077.5,-12 1077.5,-24 1077.5,-24 1077.5,-30 1071.5,-36 1065.5,-36"/>
<text text-anchor="middle" x="970.5" y="-14.9" font-family="Arial" font-size="12.00">2.5 Udostępnienie historii zamówień</text>
</g>
<!-- f2&#45;&gt;f25 -->
<g id="edge10" class="edge">
<title>f2&#45;&gt;f25</title>
<path fill="none" stroke="#3b6ea8" stroke-width="1.2" d="M795.65,-100C866.16,-100 970.5,-100 970.5,-100 970.5,-100 970.5,-60.36 970.5,-36.2"/>
</g>
<!-- f31 -->
<g id="node12" class="node">
<title>f31</title>
<path fill="#f8fbff" stroke="#3b6ea8" stroke-width="1.4" d="M1253,-36C1253,-36 1130,-36 1130,-36 1124,-36 1118,-30 1118,-24 1118,-24 1118,-12 1118,-12 1118,-6 1124,0 1130,0 1130,0 1253,0 1253,0 1259,0 1265,-6 1265,-12 1265,-12 1265,-24 1265,-24 1265,-30 1259,-36 1253,-36"/>
<text text-anchor="middle" x="1191.5" y="-14.9" font-family="Arial" font-size="12.00">3.1 Definiowanie rejonu</text>
</g>
<!-- f3&#45;&gt;f31 -->
<g id="edge11" class="edge">
<title>f3&#45;&gt;f31</title>
<path fill="none" stroke="#3b6ea8" stroke-width="1.2" d="M1477.28,-109C1377.19,-109 1191.5,-109 1191.5,-109 1191.5,-109 1191.5,-63.01 1191.5,-36.42"/>
</g>
<!-- f32 -->
<g id="node13" class="node">
<title>f32</title>
<path fill="#f8fbff" stroke="#3b6ea8" stroke-width="1.4" d="M1497.5,-36C1497.5,-36 1317.5,-36 1317.5,-36 1311.5,-36 1305.5,-30 1305.5,-24 1305.5,-24 1305.5,-12 1305.5,-12 1305.5,-6 1311.5,0 1317.5,0 1317.5,0 1497.5,0 1497.5,0 1503.5,0 1509.5,-6 1509.5,-12 1509.5,-12 1509.5,-24 1509.5,-24 1509.5,-30 1503.5,-36 1497.5,-36"/>
<text text-anchor="middle" x="1407.5" y="-14.9" font-family="Arial" font-size="12.00">3.2 Przypisanie klientów do rejonu</text>
</g>
<!-- f3&#45;&gt;f32 -->
<g id="edge12" class="edge">
<title>f3&#45;&gt;f32</title>
<path fill="none" stroke="#3b6ea8" stroke-width="1.2" d="M1493.5,-90.58C1493.5,-74.69 1493.5,-51.87 1493.5,-36.08"/>
</g>
<!-- f33 -->
<g id="node14" class="node">
<title>f33</title>
<path fill="#f8fbff" stroke="#3b6ea8" stroke-width="1.4" d="M1781,-36C1781,-36 1562,-36 1562,-36 1556,-36 1550,-30 1550,-24 1550,-24 1550,-12 1550,-12 1550,-6 1556,0 1562,0 1562,0 1781,0 1781,0 1787,0 1793,-6 1793,-12 1793,-12 1793,-24 1793,-24 1793,-30 1787,-36 1781,-36"/>
<text text-anchor="middle" x="1671.5" y="-14.9" font-family="Arial" font-size="12.00">3.3 Przypisanie magazynu obsługującego</text>
</g>
<!-- f3&#45;&gt;f33 -->
<g id="edge13" class="edge">
<title>f3&#45;&gt;f33</title>
<path fill="none" stroke="#3b6ea8" stroke-width="1.2" d="M1562.88,-90.58C1562.88,-74.69 1562.88,-51.87 1562.88,-36.08"/>
</g>
<!-- f34 -->
<g id="node15" class="node">
<title>f34</title>
<path fill="#f8fbff" stroke="#3b6ea8" stroke-width="1.4" d="M2033.5,-36C2033.5,-36 1845.5,-36 1845.5,-36 1839.5,-36 1833.5,-30 1833.5,-24 1833.5,-24 1833.5,-12 1833.5,-12 1833.5,-6 1839.5,0 1845.5,0 1845.5,0 2033.5,0 2033.5,0 2039.5,0 2045.5,-6 2045.5,-12 2045.5,-12 2045.5,-24 2045.5,-24 2045.5,-30 2039.5,-36 2033.5,-36"/>
<text text-anchor="middle" x="1939.5" y="-14.9" font-family="Arial" font-size="12.00">3.4 Analiza zapotrzebowania rejonu</text>
</g>
<!-- f3&#45;&gt;f34 -->
<g id="edge14" class="edge">
<title>f3&#45;&gt;f34</title>
<path fill="none" stroke="#3b6ea8" stroke-width="1.2" d="M1575.75,-90.78C1575.75,-72.17 1575.75,-46 1575.75,-46 1575.75,-46 1939.5,-46 1939.5,-46 1939.5,-46 1939.5,-41.55 1939.5,-36.21"/>
</g>
<!-- f35 -->
<g id="node16" class="node">
<title>f35</title>
<path fill="#f8fbff" stroke="#3b6ea8" stroke-width="1.4" d="M2241.5,-36C2241.5,-36 2097.5,-36 2097.5,-36 2091.5,-36 2085.5,-30 2085.5,-24 2085.5,-24 2085.5,-12 2085.5,-12 2085.5,-6 2091.5,0 2097.5,0 2097.5,0 2241.5,0 2241.5,0 2247.5,0 2253.5,-6 2253.5,-12 2253.5,-12 2253.5,-24 2253.5,-24 2253.5,-30 2247.5,-36 2241.5,-36"/>
<text text-anchor="middle" x="2169.5" y="-14.9" font-family="Arial" font-size="12.00">3.5 Raportowanie rejonowe</text>
</g>
<!-- f3&#45;&gt;f35 -->
<g id="edge15" class="edge">
<title>f3&#45;&gt;f35</title>
<path fill="none" stroke="#3b6ea8" stroke-width="1.2" d="M1588.62,-90.9C1588.62,-79.91 1588.62,-68 1588.62,-68 1588.62,-68 2169.5,-68 2169.5,-68 2169.5,-68 2169.5,-50.37 2169.5,-36.05"/>
</g>
<!-- f51 -->
<g id="node17" class="node">
<title>f51</title>
<path fill="#f8fbff" stroke="#3b6ea8" stroke-width="1.4" d="M2423,-36C2423,-36 2306,-36 2306,-36 2300,-36 2294,-30 2294,-24 2294,-24 2294,-12 2294,-12 2294,-6 2300,0 2306,0 2306,0 2423,0 2423,0 2429,0 2435,-6 2435,-12 2435,-12 2435,-24 2435,-24 2435,-30 2429,-36 2423,-36"/>
<text text-anchor="middle" x="2364.5" y="-14.9" font-family="Arial" font-size="12.00">5.1 Przyjęcie wyrobów</text>
</g>
<!-- f5&#45;&gt;f51 -->
<g id="edge16" class="edge">
<title>f5&#45;&gt;f51</title>
<path fill="none" stroke="#3b6ea8" stroke-width="1.2" d="M2655.94,-109C2551.49,-109 2364.5,-109 2364.5,-109 2364.5,-109 2364.5,-63.01 2364.5,-36.42"/>
</g>
<!-- f52 -->
<g id="node18" class="node">
<title>f52</title>
<path fill="#f8fbff" stroke="#3b6ea8" stroke-width="1.4" d="M2687.5,-36C2687.5,-36 2487.5,-36 2487.5,-36 2481.5,-36 2475.5,-30 2475.5,-24 2475.5,-24 2475.5,-12 2475.5,-12 2475.5,-6 2481.5,0 2487.5,0 2487.5,0 2687.5,0 2687.5,0 2693.5,0 2699.5,-6 2699.5,-12 2699.5,-12 2699.5,-24 2699.5,-24 2699.5,-30 2693.5,-36 2687.5,-36"/>
<text text-anchor="middle" x="2587.5" y="-14.9" font-family="Arial" font-size="12.00">5.2 Ewidencja stanów magazynowych</text>
</g>
<!-- f5&#45;&gt;f52 -->
<g id="edge17" class="edge">
<title>f5&#45;&gt;f52</title>
<path fill="none" stroke="#3b6ea8" stroke-width="1.2" d="M2677.75,-90.58C2677.75,-74.69 2677.75,-51.87 2677.75,-36.08"/>
</g>
<!-- f53 -->
<g id="node19" class="node">
<title>f53</title>
<path fill="#f8fbff" stroke="#3b6ea8" stroke-width="1.4" d="M2973.5,-36C2973.5,-36 2751.5,-36 2751.5,-36 2745.5,-36 2739.5,-30 2739.5,-24 2739.5,-24 2739.5,-12 2739.5,-12 2739.5,-6 2745.5,0 2751.5,0 2751.5,0 2973.5,0 2973.5,0 2979.5,0 2985.5,-6 2985.5,-12 2985.5,-12 2985.5,-24 2985.5,-24 2985.5,-30 2979.5,-36 2973.5,-36"/>
<text text-anchor="middle" x="2862.5" y="-14.9" font-family="Arial" font-size="12.00">5.3 Rezerwacja wyrobów pod zamówienie</text>
</g>
<!-- f5&#45;&gt;f53 -->
<g id="edge18" class="edge">
<title>f5&#45;&gt;f53</title>
<path fill="none" stroke="#3b6ea8" stroke-width="1.2" d="M2766.25,-90.58C2766.25,-74.69 2766.25,-51.87 2766.25,-36.08"/>
</g>
<!-- f54 -->
<g id="node20" class="node">
<title>f54</title>
<path fill="#f8fbff" stroke="#3b6ea8" stroke-width="1.4" d="M3241.5,-36C3241.5,-36 3037.5,-36 3037.5,-36 3031.5,-36 3025.5,-30 3025.5,-24 3025.5,-24 3025.5,-12 3025.5,-12 3025.5,-6 3031.5,0 3037.5,0 3037.5,0 3241.5,0 3241.5,0 3247.5,0 3253.5,-6 3253.5,-12 3253.5,-12 3253.5,-24 3253.5,-24 3253.5,-30 3247.5,-36 3241.5,-36"/>
<text text-anchor="middle" x="3139.5" y="-14.9" font-family="Arial" font-size="12.00">5.4 Kompletacja i wydanie zamówienia</text>
</g>
<!-- f5&#45;&gt;f54 -->
<g id="edge19" class="edge">
<title>f5&#45;&gt;f54</title>
<path fill="none" stroke="#3b6ea8" stroke-width="1.2" d="M2793.03,-103C2910.9,-103 3139.5,-103 3139.5,-103 3139.5,-103 3139.5,-60.98 3139.5,-36.03"/>
</g>
<!-- f55 -->
<g id="node21" class="node">
<title>f55</title>
<path fill="#f8fbff" stroke="#3b6ea8" stroke-width="1.4" d="M3443.5,-36C3443.5,-36 3305.5,-36 3305.5,-36 3299.5,-36 3293.5,-30 3293.5,-24 3293.5,-24 3293.5,-12 3293.5,-12 3293.5,-6 3299.5,0 3305.5,0 3305.5,0 3443.5,0 3443.5,0 3449.5,0 3455.5,-6 3455.5,-12 3455.5,-12 3455.5,-24 3455.5,-24 3455.5,-30 3449.5,-36 3443.5,-36"/>
<text text-anchor="middle" x="3374.5" y="-14.9" font-family="Arial" font-size="12.00">5.5 Uzupełnianie zapasów</text>
</g>
<!-- f5&#45;&gt;f55 -->
<g id="edge20" class="edge">
<title>f5&#45;&gt;f55</title>
<path fill="none" stroke="#3b6ea8" stroke-width="1.2" d="M2793.14,-115C2960.22,-115 3374.5,-115 3374.5,-115 3374.5,-115 3374.5,-64.34 3374.5,-36.24"/>
</g>
</g>
</svg>
