<?xml version="1.0" encoding="UTF-8" standalone="no"?>
<!DOCTYPE svg PUBLIC "-//W3C//DTD SVG 1.1//EN"
 "http://www.w3.org/Graphics/SVG/1.1/DTD/svg11.dtd">
<!-- Generated by graphviz version 2.43.0 (0)
 -->
<!-- Title: G Pages: 1 -->
<svg width="821pt" height="164pt"
 viewBox="0.00 0.00 820.50 164.00" xmlns="http://www.w3.org/2000/svg" xmlns:xlink="http://www.w3.org/1999/xlink">
<g id="graph0" class="graph" transform="scale(1 1) rotate(0) translate(4 160)">
<title>G</title>
<polygon fill="white" stroke="transparent" points="-4,4 -4,-160 816.5,-160 816.5,4 -4,4"/>
<text text-anchor="middle" x="406.25" y="-136" font-family="Arial" font-size="20.00">FHD &#45; System obsługi zamówień: funkcje główne</text>
<!-- root -->
<g id="node1" class="node">
<title>root</title>
<path fill="#f8fbff" stroke="#3b6ea8" stroke-width="1.4" d="M478.5,-126C478.5,-126 329.5,-126 329.5,-126 323.5,-126 317.5,-120 317.5,-114 317.5,-114 317.5,-102 317.5,-102 317.5,-96 323.5,-90 329.5,-90 329.5,-90 478.5,-90 478.5,-90 484.5,-90 490.5,-96 490.5,-102 490.5,-102 490.5,-114 490.5,-114 490.5,-120 484.5,-126 478.5,-126"/>
<text text-anchor="middle" x="404" y="-104.9" font-family="Arial" font-size="12.00">0. System obsługi zamówień</text>
</g>
<!-- f1 -->
<g id="node2" class="node">
<title>f1</title>
<path fill="#f8fbff" stroke="#3b6ea8" stroke-width="1.4" d="M124,-36C124,-36 12,-36 12,-36 6,-36 0,-30 0,-24 0,-24 0,-12 0,-12 0,-6 6,0 12,0 12,0 124,0 124,0 130,0 136,-6 136,-12 136,-12 136,-24 136,-24 136,-30 130,-36 124,-36"/>
<text text-anchor="middle" x="68" y="-14.9" font-family="Arial" font-size="12.00">1. Obsługa zamówień</text>
</g>
<!-- root&#45;&gt;f1 -->
<g id="edge1" class="edge">
<title>root&#45;&gt;f1</title>
<path fill="none" stroke="#3b6ea8" stroke-width="1.2" d="M317.47,-108C217.92,-108 68,-108 68,-108 68,-108 68,-62.51 68,-36.21"/>
</g>
<!-- f2 -->
<g id="node3" class="node">
<title>f2</title>
<path fill="#f8fbff" stroke="#3b6ea8" stroke-width="1.4" d="M290,-36C290,-36 188,-36 188,-36 182,-36 176,-30 176,-24 176,-24 176,-12 176,-12 176,-6 182,0 188,0 188,0 290,0 290,0 296,0 302,-6 302,-12 302,-12 302,-24 302,-24 302,-30 296,-36 290,-36"/>
<text text-anchor="middle" x="239" y="-14.9" font-family="Arial" font-size="12.00">2. Obsługa klientów</text>
</g>
<!-- root&#45;&gt;f2 -->
<g id="edge2" class="edge">
<title>root&#45;&gt;f2</title>
<path fill="none" stroke="#3b6ea8" stroke-width="1.2" d="M329.75,-89.79C329.75,-63.49 329.75,-18 329.75,-18 329.75,-18 317.51,-18 302.03,-18"/>
</g>
<!-- f3 -->
<g id="node4" class="node">
<title>f3</title>
<path fill="#f8fbff" stroke="#3b6ea8" stroke-width="1.4" d="M454,-36C454,-36 354,-36 354,-36 348,-36 342,-30 342,-24 342,-24 342,-12 342,-12 342,-6 348,0 354,0 354,0 454,0 454,0 460,0 466,-6 466,-12 466,-12 466,-24 466,-24 466,-30 460,-36 454,-36"/>
<text text-anchor="middle" x="404" y="-14.9" font-family="Arial" font-size="12.00">3. Obsługa rejonów</text>
</g>
<!-- root&#45;&gt;f3 -->
<g id="edge3" class="edge">
<title>root&#45;&gt;f3</title>
<path fill="none" stroke="#3b6ea8" stroke-width="1.2" d="M404,-89.79C404,-74.17 404,-51.79 404,-36.19"/>
</g>
<!-- f4 -->
<g id="node5" class="node">
<title>f4</title>
<path fill="#f8fbff" stroke="#3b6ea8" stroke-width="1.4" d="M623.5,-36C623.5,-36 518.5,-36 518.5,-36 512.5,-36 506.5,-30 506.5,-24 506.5,-24 506.5,-12 506.5,-12 506.5,-6 512.5,0 518.5,0 518.5,0 623.5,0 623.5,0 629.5,0 635.5,-6 635.5,-12 635.5,-12 635.5,-24 635.5,-24 635.5,-30 629.5,-36 623.5,-36"/>
<text text-anchor="middle" x="571" y="-14.9" font-family="Arial" font-size="12.00">4. Obsługa wyrobów</text>
</g>
<!-- root&#45;&gt;f4 -->
<g id="edge4" class="edge">
<title>root&#45;&gt;f4</title>
<path fill="none" stroke="#3b6ea8" stroke-width="1.2" d="M478.25,-89.79C478.25,-63.49 478.25,-18 478.25,-18 478.25,-18 490.62,-18 506.33,-18"/>
</g>
<!-- f5 -->
<g id="node6" class="node">
<title>f5</title>
<path fill="#f8fbff" stroke="#3b6ea8" stroke-width="1.4" d="M800.5,-36C800.5,-36 687.5,-36 687.5,-36 681.5,-36 675.5,-30 675.5,-24 675.5,-24 675.5,-12 675.5,-12 675.5,-6 681.5,0 687.5,0 687.5,0 800.5,0 800.5,0 806.5,0 812.5,-6 812.5,-12 812.5,-12 812.5,-24 812.5,-24 812.5,-30 806.5,-36 800.5,-36"/>
<text text-anchor="middle" x="744" y="-14.9" font-family="Arial" font-size="12.00">5. Obsługa magazynu</text>
</g>
<!-- root&#45;&gt;f5 -->
<g id="edge5" class="edge">
<title>root&#45;&gt;f5</title>
<path fill="none" stroke="#3b6ea8" stroke-width="1.2" d="M490.68,-108C591.41,-108 744,-108 744,-108 744,-108 744,-62.51 744,-36.21"/>
</g>
</g>
</svg>
